<?xml version="1.0" encoding="UTF-8"?>
<svg enable-background="new 135.5742 64.3587 1553.4258 1702.4047" version="1.1" viewBox="135.5742 64.3587 1553.4258 1702.4047" xmlns="http://www.w3.org/2000/svg">
 <g stroke-width=".0938">
  <path d="m387.51 108.7c5.34-2.98 11.17-5.75 17.46-5.28 8.39-0.93 16.14 4.31 20.8 10.91 7.11 9.11 10.99 20.14 15.01 30.83 3.33 8.9 5.57 18.2 9.32 26.93 6.57-11.4 17.93-19.45 30.23-23.69 5.61-1.55 11.73-3.15 17.4-0.93 5.54 1.75 10.15 6.24 11.66 11.89 0.7 3.22 0.85 6.53 1.46 9.76 6.49-3.98 13.29-7.46 20.57-9.76 4.91-2.21 10.36-2.29 15.52-3.64 12.64-1.05 26.28 1.7 36.1 10.18 9.5 8.02 14.03 20.85 13.27 33.1-0.95 19.44-11.78 36.74-24.39 50.93-3.2 3.39-6.66 6.51-10 9.75-21.87-14.15-46.48-24.25-72.26-28.37-8.84-1.37-17.7-3.09-26.68-2.93-4.33 0.07-8.65-0.2-12.96-0.62-6.04-0.61-12.04 0.63-18.08 0.64-10.1 0-20.04 2.07-30.04 3.31-13.31 2.4-26.4 6.01-39.23 10.29-10.75-15.54-15.7-34.37-16.96-53.03-0.2-11.09 1.29-22.2 4.33-32.84 4.41-14.5 12.54-28.13 24.41-37.73 3.91-3.79 8.57-6.65 13.06-9.7z" fill="#C37182" stroke="#C37182"/>
  <path d="m1296.4 309.69c7.58-2.66 15.67-2.05 23.49-3.36 8.37-0.12 16.81-0.64 25.11 0.82 10.23 0.4 20.19 3.22 29.65 7.02 12.16 4.64 23.3 12.83 29.97 24.15 2.9299 5.11 4.78 10.84 5.61 16.66-0.87 9.77-5.14 19.21-11.72 26.48-4.9301 5.13-9.8201 10.41-15.88 14.22-6.64 5.07-14.33 8.4-21.69 12.22-20.79 9.96-42.57 17.7-63.26 27.87-15.66 8.28-31.33 17.33-43.35 30.59-6.97 7.69-13.52 16.13-17.11 25.97-6.0599 15.81-6.11 33.42-2.3 49.77 2.0601 10.94 5.7001 21.58 10.24 31.75 2.71 7.29 6.0699 14.33 9.9099 21.1 18.67 36.75 43.37 70.12 61.35 107.25 1.3101 3.45 1.05 7.18 1.1101 10.8 0.1499 13.99 0.12 27.99-0.1901 41.98-1.03 7.46-1.09 14.99-1 22.51-2.22 1.64-4.72 2.81-7.29 3.76-0.2899-1.81-0.5399-3.61-0.84-5.4-7.4-34.93-19.28-68.85-33.85-101.44-12.32-26.22-26.52-52.1-46.77-73.1-8.17-8.78-18.26-15.57-25.91-24.84-4.0699-4.95-8.72-9.45-12.29-14.79-3.4701-5.23-7.28-10.24-10.49-15.63-6.49-10.71-13.64-21.2-17.79-33.11-3.52-9.03-5.51-18.53-7.3-28.02-0.9099-5.3-0.4299-10.71-1.1599-16.02-0.92-6.95-0.0701-13.92 0.4299-20.86 0.02-9.12 2.09-18.08 4.23-26.88 4.3101-18.01 12.22-35.37 24.34-49.5 19.03-20.99 43.4-36.64 69.42-47.53 9.99-4.57 20.6-7.51 31.04-10.85 4.76-1.21 9.35-3.09 14.29-3.59z" fill="#8DB8A4" stroke="#8DB8A4"/>
  <path d="m298.38 353.06c0.09-2.25-0.35-4.84 1.24-6.69 0.58 1.11 1.14 2.24 1.69 3.38l-0.62-0.22-1.68-0.58c-0.84 7.95 0.76 15.86 3.74 23.22-3.34-5.72-4.28-12.58-4.37-19.11z" fill="#6F6D6B" stroke="#6F6D6B"/>
  <path d="m299.01 348.95l1.68 0.58c4.27 8.48 10.52 15.95 18.3 21.42 8.15 5.39 17.13 10.02 27.01 10.94 5.88 1.78 12 0.97 18.03 0.99 6.08-1.31 12.37-1.83 18.05-4.55l-0.63 1.15c-13.86 19.41-43.77 24.17-63.2 10.53-3.54-2.35-6.64-5.28-9.56-8.35-2.26-2.97-4.32-6.13-5.94-9.49-2.98-7.36-4.58-15.27-3.74-23.22z" fill="#5C1A11" stroke="#5C1A11"/>
  <path d="m236.61 369.69c4.99-4.09 9.46-8.82 14.85-12.43 0.17 6.94-1.84 13.8-0.8 20.74 0.67 4.61 0.72 9.28 1.25 13.92 2.13 12.7 5.66 25.16 10.89 36.95 1.92 5.89 5.97 10.72 8.1 16.5-0.76 0.3-2.26 0.91-3.01 1.21-5.44-0.22-10.53-2.52-15.93-3.01-4.67-0.35-9.03-2.26-13.66-2.77-22.23-4.53-44.39-9.25-66.66-13.61-0.13-0.51-0.38-1.51-0.51-2.01 9.59-6.98 18.05-15.38 27.25-22.85 6.84-5.44 13.04-11.63 19.9-17.06 6.28-4.99 11.93-10.73 18.33-15.58z" fill="#DDB166" stroke="#DDB166"/>
  <path d="m784.94 622.01c-34.23-46.95-61.41-98.73-83.58-152.35-1.86-3.2899-2.26-7.26-4.67-10.23-0.61-3.3699-2.28-6.3599-3.55-9.48-19.76-52.91-45.35-104.6-82.88-147.27-6.68-7.6099-14.17-14.43-21.27-21.63-3.86-3.53-8.25-6.42-12.11-9.9401-4.58-4.34-10.23-7.28-14.96-11.43-21.87-14.15-46.48-24.25-72.26-28.37-8.84-1.3701-17.7-3.0901-26.68-2.9301-4.33 0.0699-8.65-0.2001-12.96-0.62-6.04-0.6101-12.04 0.63-18.08 0.6399-10.1 0-20.04 2.0701-30.04 3.3101-13.31 2.4-26.4 6.01-39.23 10.29-9.96 4.23-20.25 7.6799-29.68 13.07-9.02 4.23-17.07 10.09-25.33 15.58-24.51 17.72-45.02 42.47-53.22 71.97-1.96 4.66-1.95 9.76-2.98 14.64 0.17 6.9399-1.84 13.8-0.8 20.74 0.67 4.61 0.72 9.28 1.25 13.92 2.1299 12.7 5.66 25.16 10.89 36.95 1.92 5.89 5.97 10.72 8.1 16.5-0.76 0.2999-2.26 0.91-3.01 1.21 1.36 0.41 2.71 0.84 4.04 1.34 0.29 0.75 0.6 1.51 0.95 2.26 3.57 6.55 7.78 12.74 12.35 18.64 5.8799 7.73 11.59 15.65 18.52 22.49 11.98 13.3 24.92 25.7 36.9 39.01 1.93 1.98 3.76 4.0898 5.22 6.47 1.01 0.74 2.12 1.3999 2.99 2.33 7.55 9.91 15.3 19.78 21.19 30.82 1.03 2.24 2.22 4.42 3.91 6.25 2.15 5.8 5.34 11.15 7.56 16.92 5.75 14.62 10.95 29.63 13.36 45.19 0.49 1.96 1.51 3.7999 1.59 5.8599-0.15 6.7001 2.38 13.11 2.31 19.82 1.03 5.3 0.95 10.7 0.97 16.08-0.07 7.99 1.67 16.01 0.23 23.98 0.11 10.32-0.6201 20.65-0.7 30.99 0.16 3.09-1.91 5.8-1.58 8.92 0.23 4.73-1.33 9.31-1.11 14.04-0.48 7.04-2.1 13.94-2.71 20.97-0.43 8.05-2.33 15.93-3.18 23.95 0.1 6.41-1.73 12.62-2.2 19-0.18 5.3701-0.99 10.69-1.35 16.05-1.08 2.57-1.5 5.32-1.5 8.11-0.08 8.14-2.41 16.02-3.19 24.09-0.4 4.38-2.12 8.4901-2.79 12.81-0.15 3.7-0.2 7.42 0.06 11.12 0.95 3.31 3.04 6.5 6.23 8.02 4 0.43 7.97 1.22 12 1.34 13.21-1.12 25.13-9.07 32.48-19.93 7.86-11.86 12.77-25.84 23.14-35.93 4.54-4.16 11.33-7.4301 17.4-4.65 11.1 5.35 17.6 16.63 28.02 22.97 1.85-16.65 4.42-33.31 9.69-49.25 4.71-17.22 12.23-33.52 20.87-49.09 8.56-14.7 17.89-29.08 29.57-41.52 3.26-3.1901 4.42-7.91 7.88-10.92 3.17-2.87 5.92-6.2001 9.34-8.77 7.92-5.64 14.91-12.45 22.57-18.41 10.11-6.98 19.93-14.46 30.73-20.37 6.16-3.27 11.96-7.24 18.57-9.5901 15.15-7.13 31.14-12.5 47.6-15.63 7.71-1 15.33-2.87 23.14-2.99 10.22 0.0599 20.48-1.83 30.66-0.0499 3.9601 0.8099 8 1.0299 12.03 1.1799 15.33 1.8301 30.48 5.0801 45.3 9.36-7.9098-8.8002-14.87-18.43-22.01-27.85zm-403.49-242.53c-13.86 19.41-43.77 24.17-63.2 10.53-3.54-2.3501-6.64-5.28-9.56-8.3501-2.26-2.97-4.32-6.1299-5.94-9.49-3.34-5.72-4.28-12.58-4.37-19.11 0.09-2.25-0.35-4.8401 1.24-6.6901 0.58 1.11 1.14 2.24 1.69 3.38l-0.62-0.22c4.27 8.48 10.52 15.95 18.3 21.42 8.15 5.39 17.13 10.02 27.01 10.94 5.88 1.7799 12 0.97 18.03 0.99 6.08-1.3099 12.37-1.83 18.05-4.55l-0.63 1.1501z" fill="#BDC68A" stroke="#BDC68A"/>
  <path d="m1411 402.01c10.94-1.01 21.96-1.64 32.96-1.21 7.59 1.06 15.44 0 22.84 2.36 21.25 1.3 42.05 7.49 60.97 17.19 7.8999 4.01 15.51 8.72 22.24 14.52 9.5399 7.7 17.96 17.24 22.61 28.72 2.86 7.79 4.74 16.19 3.5599 24.51-1.35 4.67-2.5399 9.56-5.8099 13.33-8.65 10.62-22.04 15.63-34.95 18.75-5.1499 0.75-10.26 1.73-15.4 2.36-17.61-0.1-35.23 0.2401-52.82-0.33-8.35-1.2401-16.81-0.38-25.2-0.68-4.74-0.36-9.3201 1.33-14.04 0.99-3.39-0.13-6.67 0.85-10.04 0.91-4.77 0.05-9.23 2.02-13.94 2.5-18.45 4.54-37.06 12.79-49.18 27.97-12.42 14.93-17.63 34.24-20.42 53.07 0.2699 5.38-1.28 10.64-0.9601 16.03 0.29 12-0.75 24.07 0.9 36.01-0.46 9.97 2.12 19.72 2.27 29.66 0.02 11.11 0 22.27-1.15 33.34-2.45 17.93-6.9299 35.66-14.18 52.27-1.6801 1.04-3.3201 2.11-4.9401 3.21-0.09-7.52-0.03-15.05 1-22.51 0.3101-13.99 0.34-27.99 0.1901-41.98-0.0601-3.62 0.2-7.35-1.1101-10.8 0.5801-1.31 0.7301-2.65 0.4701-4.03-0.73-4.07-0.17-8.28-1.2101-12.3-1.48-5.82-1.25-11.93-2.85-17.72-1.4-4.53-1.51-9.35-3.36-13.75-3.91-17.91-14.82-33.38-18.64-51.35-2.66-6.44-2.89-13.44-4.8199-20.08-0.4-7.72-2.7001-15.19-2.7001-22.94-1.45-9.6201-1.0399-19.38-0.7899-29.07 2.51-23.18 11.13-45.43 23.23-65.27 14.75-23.42 35.46-44.69 62.26-53.62 4.25-1.88 8.9399-2.5 13.14-4.51 3.08-1.4 6.59-1.16 9.7999-2.15 6.55-1.94 13.42-1.94 20.07-3.4z" fill="#DDB166" stroke="#DDB166"/>
  <path d="m250.87 487.86c6.22-13.12 12.02-26.89 22.01-37.68 3.57 6.55 7.78 12.74 12.35 18.64 5.88 7.73 11.59 15.65 18.52 22.49 11.98 13.3 24.92 25.7 36.9 39.01 1.93 1.98 3.76 4.09 5.22 6.47-0.02 3.96-2.26 7.42-2.94 11.27-4.3 13.86-10.25 27.34-18.77 39.15-7.33 9.81-16.82 18.97-29.1 21.88-8.03 2.8-16.72 0.66-24.15-2.86-11.52-6.46-19.81-17.68-24-30.07-2.68-5.71-3.27-12.03-4.73-18.09-1.38-10.98-1.05-22.09-0.9-33.13 0.83-12.8 3.68-25.62 9.59-37.08z" fill="#C37182" stroke="#C37182"/>
  <path d="m1446.7 545.7c16.4-5.57 34.25-7.91 51.32-4.32 2.1 0.73 4.33 1.02 6.58 1.07 4.87-0.12 9.2 2.56 14.03 2.94 19.32 4.93 37.67 13.17 54.98 23 15.84 9.72 31.59 19.96 44.67 33.3 5.41 5.95 11.15 11.73 15.42 18.61 8.4 10.95 14.79 23.59 17.9 37.07 2.36 6.6 1.74 13.71 1.73 20.59-0.78 7.95-3.1899 15.96-7.76 22.57-4.71 7.29-13.45 10.65-21.66 11.98-9.76 0.09-19.81 1.08-29.26-1.92-9.5599-2-18.33-6.38-27.2-10.26-28.79-13.61-55.92-31.24-86.76-40.09-2.91-1.05-6.0499-1.09-9.01-1.9-8.28-2.69-17.11-2.09-25.68-2.19-19.37-0.39-37.45 9.6-51 22.83-11.8 11.39-20.42 25.5-28.2 39.8-8.5699 17.8-16.23 36.08-22.28 54.88-1.8101-2.47-4.2301-4.89-7.52-4.83-5.87-0.93-11 2.55-15.74 5.45 7.25-16.61 11.73-34.34 14.18-52.27 1.15-11.07 1.17-22.23 1.15-33.34 3.1899-5.73 2.3-12.58 4.45-18.64 2.2201-10.39 5.4401-20.53 9.14-30.47 2.5701-7.08 4.99-14.25 8.29-21.03 9.15-17.6 22.57-32.69 37.9-45.15 5.99-5.64 13.27-9.56 20.14-13.98 9.68-5.3399 19.46-10.78 30.19-13.7z" fill="#BDC68A" stroke="#BDC68A"/>
  <path d="m718.96 639.37c10.22 0.06 20.48-1.83 30.66-0.05 3.96 0.81 8 1.03 12.03 1.18 15.33 1.83 30.48 5.08 45.3 9.36 22.34 6.57 44.16 14.95 65.1 25.17 38.22 17.3 73.74 39.87 111.34 58.43 37.4 18.93 75.51 36.55 114.69 51.49 19.64 7.41 39.56 14.2 60.02 18.92 5.8 2.01 12.02 2.14 17.96 3.56 3.5599 0.89 7.24 1.21 10.92 1.14 4.39-0.03 8.73 1.37 13.13 0.67 3.27-0.54 6.59-0.64 9.9-0.83 7.79-1.33 15.45-4.72 20.71-10.78 0.14 4.92-0.61 9.8-1.27 14.67-4.09 21.49-12.17 42-21.39 61.77-16.5 34.42-36.89 66.85-59.02 97.91-20.45 28.44-42.23 56.17-67.74 80.29-56.27 54.24-127.11 94.47-204.08 109.83-8.12 1.0701-16.01 3.5-24.2 4.0801-9.98 0.83-19.92 2.5399-29.97 2.3899-10.69 0.2301-21.39 0.2201-32.07-0.13-26.11-1.96-52.21-5.96-77.16-14.07-73.11-21.93-138.83-70.3-178.21-136.08-21.04-34.88-34.05-74.65-37.03-115.3-0.27-12.35-0.84-24.78 0.42-37.08 1.85-16.65 4.42-33.31 9.69-49.25 4.71-17.22 12.23-33.52 20.87-49.09 8.56-14.7 17.89-29.08 29.57-41.52 3.26-3.19 4.42-7.91 7.88-10.92 3.17-2.87 5.92-6.2 9.34-8.77 7.92-5.64 14.91-12.45 22.57-18.41 10.11-6.98 19.93-14.46 30.73-20.37 6.16-3.27 11.96-7.24 18.57-9.59 15.15-7.13 31.14-12.5 47.6-15.63 7.7102-1.0001 15.33-2.8701 23.14-2.9901m9.99 7.4c-8.81 5.74-17.67 11.52-25.46 18.64-2.26 1.94-4.08 5.08-7.49 4.8-0.71-0.27-2.13-0.8-2.84-1.07 2.54-2.47 5.4301-4.59 7.67-7.35-0.01-4.52-1.47-8.89-1.85-13.38-1.75 0.6-3.2 1.79-4.54 3.03-9.32 7.83-17.27 17.18-24.64 26.83-1.82 0.9-4.88 3.83-6.04 0.56 2.24-2.99 4.36-6.07 6.93-8.79-1.5-3.04-2.22-6.35-3.2-9.56-0.54-1.42-2.3-3.64-3.52-1.52-7.83 9.42-14.51 19.81-20.34 30.58-1.07 0.27-2.11 0.59-3.17 0.88-0.35-0.36-1.06-1.07-1.41-1.43 0.98-1.9 2.21-3.73 2.65-5.84-2-4.1-4.41-8-6.68-11.94-5.3 10.11-11.21 19.96-15.24 30.69-0.7401 2.03-1.72 3.96-2.91 5.77l3.56 0.92c-1.12 0.33-2.24 0.3799-3.37 0.14-1.19 0.84-2.32 1.76-3.42 2.71-0.52-0.08-1.57-0.24-2.09-0.33 1.6-3.61 2.97-7.32 4.02-11.13-3.16-3.31-5.18-7.49-8.32-10.8-5.05 12.94-10.51 25.89-13.16 39.57-2.52 2.29-4.6201 5.14-7.91 6.4 0.54-2.9901 1.32-5.9301 2.15-8.84 0.26-1.43 0.89-3.14-0.16-4.38-2.49-3.32-5.68-6.01-8.61-8.91-4.26 11.12-5.38 23.12-7.37 34.79-0.64 3.37-0.92 8.45-5.56 8.26 0.2-3.49 1.49-7.01 0.8-10.49-3.23-2.85-6.64-5.48-10.18-7.91-1.98 9.88-2.78 20.01-2.62 30.09-0.39 3.44-0.07 6.9-0.29 10.34-0.5 2.2401-1.9901 4.05-3.22 5.9301-1.18-3.97-0.56-8.13-1.03-12.18l-0.3 0.9901-0.04-1.29c-3.98-2.31-7.78-4.94-12.03-6.73 0.97 10.4 0.14 20.92 1.92 31.26 0.24 3.84 1.94 7.84 0.52 11.62-0.66 0.44-1.98 1.34-2.64 1.79-0.6-3.12-0.74-6.41-1.83-9.39-3.86-2.39-8.37-3.58-12.45-5.5699 0.21 3.47 0.31 6.96 0.98 10.39 1.89 8.96 3.47 18.03 6.58 26.67-0.07 3.0099 0.35 6.37-1.82 8.81-1.03-3.65-2.25-7.23-3.46-10.82-4.47-1.09-8.82-2.6-13.36-3.38 1.7 8.3 4.71 16.28 7.92 24.1-0.5 7.2 7.6 12.94 4.92 20.46-1.1-0.53-2.19-1.06-3.27-1.57-0.92-1.71-1.76-3.45-2.58-5.19-4.59-0.45-9.15-1.21-13.75-1.39 5.99 12.51 12.16 25.12 20.71 36.13l-0.25 0.45c0.17 0.71 0.51 2.15 0.69 2.87-0.41 0.62-1.23 1.88-1.64 2.51-2.31-2.93-3.8799-6.58-6.94-8.82-4.4-0.23-8.79 0.09-13.16 0.47 6.22 10.62 13.84 20.42 22.07 29.57 0.7 1.94 1.43 3.88 2.19 5.82-1.07-0.28-2.14-0.54-3.21-0.79-1.29-1.37-2.6-2.71-3.91-4.04-4.41 0.8-8.86 1.39-13.23 2.37 1.87 3.67 5.01 6.4 7.76 9.39 6.74 7.1 13.81 13.99 21.79 19.69 0.35 1.99 2.38 4.63-0.1 6.07-2.9-2.21-5.56-4.72-8.43-6.96-4.37 1.17-8.7 2.5099-12.9 4.2 1.3199 1.58 2.64 3.17 4.2599 4.47 9.01 7.48 18.79 13.96 28.47 20.53 1.29 1.75 2.16 3.77 1.78 6.01-3.37-2.14-6.84-4.09-10.29-6.08-3.99 2.1201-8.32 3.61-12.06 6.21 6.98 4.47 14.06 8.79 21.22 12.97 3.88 3.92 9.72 4.88 14.26 7.8199 1.88 1.52 3.2 3.64 4.18 5.84-0.37 0.33-1.12 0.98-1.49 1.31-2.96-1.41-5.9-2.86-8.98-3.96-3.76 2.52-7.58 4.9301-11.27 7.55 12.28 6.28 24.99 12.08 38.43 15.41 0.87 1.09 1.97 1.99 2.98 2.98-0.03 0.9-0.06 1.8201-0.07 2.75-3.74-1.11-7.36-2.7-11.23-3.27-2.14 1.0701-3.79 2.87-5.67 4.3301-1.65 1.4099-3.88 2.49-4.38 4.8099 12.84 4.38 25.99 8 39.35 10.4 0.82 1.59 2.31 2.74 3.53 4.05-1.66 0.1899-3.32 0.4299-4.96 0.6599-2.08-0.48-4.08-1.22-6.09-1.8999-3.71 3.0099-6.75 6.73-9.82 10.36 9.46 2.6499 19.21 3.6599 28.87 5.26 4.76 2.1899 12.41-0.5701 14.72 5.4299-3.23 0.21-6.47 0.15-9.7-0.0699l-0.65-0.02c-3.46 3.0499-5.92 7.11-8.69 10.79 11.08 3.72 23.02 2.45 34.51 3.2799 2.83 0.42 6.53-1.01 8.47 1.77-3.23 0.53-6.64 0.35-9.71 1.53-1.55 0.58-1.41 2.37-1.56 3.72-1.77 2.65-3.31 5.4401-4.53 8.38 2.13 1.4401 4.86 0.72 7.28 0.9 5.43-0.23 10.93 0.27 16.32-0.46l0.88-0.9601c5.14-0.49 10.3-0.85 15.41-1.64 2.63 0.92 5.22 1.9701 7.83 2.9801 0 0.7 0.02 1.4099 0.04 2.1399-3.5 0.4701-7.51 0.0601-10.57 2.01-1.79 3.9301-4.16 7.66-5.11 11.93 9.44-0.4 18.75-2.33 28.04-3.9301 5.49-0.35 11.27-3.6799 16.55-0.97-1.61 2.0601-4.49 1.8101-6.56 3.1901-1.5 0.5499-3.76 0.4199-4.3 2.26-1.59 3.6799-2.59 7.59-4.0601 11.33 11.31-0.55 22-4.86 32.8-7.9401 2.76 0.39 5.5-0.1599 8.21-0.6499 0.03 0.6399 0.11 1.9199 0.14 2.5599-2.3 0.71-4.59 1.4501-6.86 2.24-1.07 4.4501-2.03 8.9401-3.21 13.37 13.43-3.11 26.14-8.77 38.6-14.57 1.31 0.0399 2.65 0.09 3.99 0.14 0.6 0.77 1.21 1.5399 1.83 2.33-3.58 1.5601-7.4399 2.6801-10.61 5.04-0.64 4.49-1.32 9-1.51 13.56 4.03-2 8.2401-3.59 12.29-5.5399 8.4-3.8301 16.27-8.6901 24.41-13.03 1.81 0.45 4.51-0.02 4.19 2.72-2.83 1.45-5.65 2.89-8.23 4.75-0.14 4.51-0.72 9.01-0.48 13.54 4.04-1.24 7.45-3.8 11.08-5.87 7.13-4.15 13.97-8.78 20.75-13.45 3.15-0.4399 7.36-3.23 9.76 0.14-2.13 1.72-4.55 3.14-6.36 5.23 0.02 4.5901 0.5 9.17 0.97 13.74 10.76-7.5 21.12-15.64 30.74-24.55 1.6801-0.8 3.4-1.51 5.1201-2.23 0.34 0.63 1.02 1.89 1.36 2.5199-2.34 2.29-4.98 4.26-7.5 6.3401 1.03 4.63 0.96 9.52 2.71 13.98 10.18-9.15 20.3-18.4 29.41-28.63 1.23 0.08 2.46-0.14 3.71-0.2-0.13 0.96-0.25 1.9399-0.36 2.9399-1.77 1.8101-3.46 3.7-5.07 5.67 1.38 4.3099 2.22 8.76 3.51 13.1 3.63-3.01 6.71-6.63 9.95-10.06 5.64-6.86 11.77-13.35 16.91-20.62l0.25 0.0701c1.69-0.27 3.9901-1.86 4.8701 0.5-1.94 2.4199-3.9301 4.8099-5.77 7.3199 0.66 4.9301 5.19 9.5 3.25 14.55 1.08-0.55 2.22-1.02 3.3-1.61-0.32-2.3401 1.75-3.87 2.93-5.5801 6.96-8.34 12.7-17.58 19.07-26.36 1.75-1.16 3.8-2.88 5.31-0.33-1.54 3.1-5.96 5.9299-4.25 9.78 1.46 3.6 3.15 7.1 5.07 10.49 7.45-11.24 14.97-22.55 20.91-34.67 2.36-1.83 4.9901-3.24 7.61-4.65 0.41 0.17 1.24 0.51 1.65 0.6801-1.94 3.47-3.72 7.0399-5.47 10.61 2.17 3.85 4.39 7.6899 6.69 11.48 2.88-3.21 4.23-7.39 6.46-11.02 4.17-8.2999 8.35-16.62 11.92-25.2h0.35c1.06-0.76 2.12-1.53 3.18-2.3 0.39 0.4601 1.18 1.4 1.57 1.87-1.36 2.78-2.65 5.5901-4 8.39 2.69 3.73 4.48 8.38 8.3 11.13 5.21-11.23 10.03-22.69 13.95-34.44 1.48-1.7001 2.63-5.5701 5.51-4.4301 0.01 0.64 0.05 1.92 0.0699 2.5701-0.71 2.84-3.6399 6.1-1.37 8.8899 2.1901 3.13 4.7101 6.02 7.11 8.99 1.13-1.95 2.0601-4.0099 2.7101-6.1699 3.7999-10.82 7.34-21.75 10.26-32.85 1.73-0.5901 2.8099-2.2001 4.1-3.4 0.22 0.4199 0.6799 1.28 0.9 1.71-0.92 3.3201-1.86 6.65-2.66 10.02 3.49 3.03 5.46 7.9399 9.78 9.87 1.58-7.09 3.65-14.06 5.5499-21.07l-0.0199 0.95c1.5699-5.97 3.1699-11.97 3.95-18.1 0.96-2.06 2.49-3.77 3.75-5.63 0.08 1.7 0.29 3.4 0.6899 5.09-0.4399 2.32-1.0499 4.61-1.6899 6.9 3.41 3.21 6.23 7.6899 10.68 9.4 2.1101-13.27 5.42-26.39 6.3501-39.84 2.34-2.03 3.72-5.6 7.2799-5.67-0.5699 3.62-1.0699 7.2599-1.4299 10.93 3.65 2.63 6.72 6.2 10.92 8 2.0499-12.28 2.62-24.72 4.08-37.06 0.87-1.1 1.84-2.1 2.85-3.07 0.2 2.39-0.3199 5.1 0.99 7.25l-0.03 0.43c3.7101 2.79 7.37 5.66 11.29 8.16l0.0701-0.86 1-0.57c1.6499-4.94 0.6599-10.29 1.4199-15.38-0.04-2.28 1.23-4.94-0.51-6.87 0.01-0.18 0.04-0.53 0.05-0.71 1.6699-2.8 1.76-6.14 2.27-9.27 0.8199 0.21 1.6499 0.42 2.5 0.65 3.7999 2.75 7.6699 5.39 11.63 7.91 0.23-13.69 1.1599-27.35 1.1599-41.04 0.7001-0.91 1.17-1.98 1.78-2.94 0.66-0.12 1.97-0.37 2.63-0.4901-0.26 3.73-0.25 7.46-0.0699 11.2 3.9199 2.12 7.46 4.9 11.52 6.81v-0.92c2.38-6.16 0.55-12.87 0.8401-19.26 0.2899-7.08-0.72-14.21 0.3199-21.24 3.16 1.66 0.9601 5.91 3.0801 8.24 4.1699 1.69 7.71 4.62 11.98 6.11-0.6901-13.48-0.61-27.04-2.79-40.4l0.74-0.49c0.84-2.49 1.8-4.94 2.84-7.35 0.53-0.21 1.6001-0.63 2.14-0.84 0.66 2.4 0.85 5.25 2.63 7.14 4.0701 1.57 8.3301 2.63 12.55 3.77-3-13.11-7.1801-25.89-11.2-38.69-1.48 0.16-2.3899 1.4-3.33 2.39-2 2.18-4.33 4.02-6.4299 6.09-7.5801-0.61-14.89-3.29-22.53-3.36-0.14-1.16-0.25-2.29-0.36-3.43-0.5601 0.05-1.6801 0.15-2.24 0.21 3.11-1.08 6.25-2.14 9.08-3.88 0.88-4.36 1.48-8.75 2.25-13.12-11.27 4.58-22.76 8.6-34.41 12.13-2.9399 0.28-6.48 0.77-7.95-2.5 3.59-1.07 7.23-1.96 10.86-2.86 1.58-4.4399 2.84-8.98 3.7-13.61-12.8 3.51-25.4 7.87-38.49 10.23-2.09-1.27-4.46-2.25-6.9199-2.22-0.0901-0.12-0.25-0.35-0.3301-0.47 4.64-1.4901 9.64-1.72 14.1-3.78 0.9-4.2 2.91-8.03 3.9301-12.19-12 2.21-23.85 5.31-35.87 7.46-3.1 0.4-6.04-0.51-8.72-1.99 0.4399-0.37 1.3199-1.11 1.76-1.48 3.3099-0.56 6.6699-0.77 9.95-1.61 2.13-4.16 3.71-8.57 5.3101-12.95-13.15 2.32-26.29 4.73-39.43 7.08-1.77-1.2-3.88-1.7-5.84-2.41 0.61-0.63 1.24-1.2401 1.89-1.83 3.34-0.44 6.71-0.68 10.06-1.13 2.3101-4.07 3.78-8.53 5.63-12.81-5.67 0.21-11.1 2.01-16.74 2.4-7.63 0.6801-15.05 2.8-22.72 3.07-2.96-1.11-5.8701-2.54-7.7-5.22 3.7-0.03 7.33-0.8 11-1.24 2.15-4.17 4.27-8.37 5.7599-12.82-11.1 1.75-22.29 2.74-33.41 4.33-2.48 0.02-5.51 1.2599-7.4-1.07-0.03 0.17-0.1 0.49-0.14 0.65l-0.22-0.26c-1.09-0.7-2.21-1.33-3.34-1.9 1.82-0.44 3.59-1.1 5.42-1.55 1.97-0.15 3.97-0.26 5.96-0.37 2.24-4.07 4.5-8.16 5.97-12.58-8.33 0.84-16.69 1.25-24.96 2.61-5.09-0.05-10.13 0.7-15.21 0.72-2.19-1.0601-4.09-2.84-6.63-3.03 4.64-0.52 9.28-1.07 13.93-1.54 2.4-3.88 4.44-7.96 6.28-12.13-2.27 0.06-4.53 0.09-6.78 0.29-0.49-0.27-1.46-0.8-1.95-1.07-7.5 1.06-15.12 0.74-22.59 2.19l-0.02 0.99c-2.88 0.13-5.75 0.34-8.61 0.63-1.3-1.02-2.76-1.77-4.16-2.58 0.02-0.47 0.08-1.42 0.11-1.9 3.69-0.07 7.39-0.17 11.09-0.45 2.12-4.1 4.65-7.99 6.42-12.26-13.43 0.45-26.79 1.98-40.2 2.42-0.94-0.6801-1.88-1.32-2.83-1.94 0.19-0.51 0.57-1.52 0.76-2.03 3.07-0.49 6.2-0.28 9.3-0.47l-0.66-0.04c2.26-4.18 5.84-8.02 6.32-12.9-7.16 1.52-14.5 0.82-21.71 1.78-5.93 0.52-11.89 0.77-17.77 1.68-3.35-0.93-6.11-3.03-8.6-5.36 4.08-0.39 8.13-1.04 12.23-1.38 1.92-4.29 4.32-8.35 6.06-12.73-1.48 0.12-2.94 0.25-4.39 0.43-7.02-1.24-14.03 0.49-21.01 1.06l-0.73 1.03c-4.59 0.5601-9.12 1.5601-13.73 1.9901-1.28-0.53-2.53-1.06-3.8-1.55 0.04-0.59 0.1299-1.77 0.18-2.36 3.21-0.47 6.65-0.24 9.67-1.61 2.22-3.75 3.45-8 5.57-11.81-13.04 0.33-25.82 3.55-38.69 5.48-2.43-0.17-5.29-0.19-6.24-2.92 3.41-1.2 7.42-0.77 10.58-2.37 1.83-4.05 3.9301-8.2 4.35-12.68-9.91 1.58-19.68 3.84-29.36 6.42-4.07-0.57-7.85 1.95-11.87 1.1 1.22-0.92 2.36-1.95 3.49-2.98 1.44-0.54 3.46-0.71 4.13-2.35 1.64-3.84 2.25-8.02 3.38-12.02-5.91 0.4-11.34 2.86-16.91 4.61-7.51 2.34-14.7 5.58-21.99 8.53-1.17-0.36-2.35-0.62-3.54-0.78-0.04-1.79 1.48-2.78 2.75-3.73 1.89-0.73 3.77-1.51 5.64-2.32 0.59-4.66 1.68-9.23 2.06-13.91-12.51 4.99-24.71 10.92-36.06 18.17-2.12-0.22-4.23-0.42-6.33-0.58 0.87-1.47 1.7599-2.92 2.66-4.36 1-0.72 2.08-1.44 2.73-2.52 0.33-4.37-0.0099-8.75-0.04-13.12-1.2199 0.51-2.3999 1.08-3.5499 1.72z" fill="#DDB166" stroke="#DDB166"/>
  <path d="m728.95 646.77c1.15-0.64 2.33-1.21 3.55-1.72 0.03 4.37 0.37 8.75 0.04 13.12-0.65 1.08-1.73 1.8-2.73 2.52-2.82 1.89-5.84 3.49-8.4 5.74 0.38 0.67 0.98 1.16 1.64 1.6 3.11 1.9 6.24 3.78 9.48 5.48 0.03 4.55 0.05 9.11 0.04 13.67-9.94-5.97-19.68-12.55-30.78-16.2-1.89-0.53-3.86-0.54-5.79-0.77 3.41 0.28 5.23-2.86 7.49-4.8 7.79-7.12 16.65-12.9 25.46-18.64z" fill="#6F6D6B" stroke="#6F6D6B"/>
  <path d="m733.48 665.63c11.35-7.25 23.55-13.18 36.06-18.17-0.38 4.68-1.47 9.25-2.06 13.91-1.87 0.81-3.75 1.59-5.64 2.32-2.57 1.01-5.09 2.14-7.59 3.29 3.35 3.21 7.57 5.56 10.36 9.31-0.04 4.62-1.28 9.16-1.33 13.81-9.34-9.11-19.83-17-30.99-23.71 0.3001-0.19 0.8901-0.57 1.1901-0.76z" fill="#6F6D6B" stroke="#6F6D6B"/>
  <path d="m694.44 651.44c1.34-1.24 2.79-2.43 4.54-3.03 0.38 4.4901 1.84 8.86 1.85 13.38-2.24 2.76-5.13 4.88-7.67 7.35-0.92 0.84-1.84 1.67-2.74 2.51 4.46 1.79 9.38 2.77 13.4 5.48 1.11 4.21 1.18 8.61 2.11 12.87-11.39-5.65-23.77-9.02-36.13-11.73 7.37-9.65 15.32-19 24.64-26.83z" fill="#6F6D6B" stroke="#6F6D6B"/>
  <path d="m784.62 659.67c5.57-1.75 11-4.21 16.91-4.61-1.13 4-1.7401 8.18-3.38 12.02-0.67 1.64-2.69 1.81-4.13 2.35-3.21 0.71-6.35 1.68-9.4 2.87l0.8 0.86c2.66 3.1801 5.38 6.31 8.41 9.14-1.11 4.54-2.38 9.03-3.75 13.5-8.07-10.2-17.54-19.21-27.45-27.6 7.29-2.95 14.48-6.19 21.99-8.53z" fill="#6F6D6B" stroke="#6F6D6B"/>
  <path d="m663.97 658.96c1.22-2.12 2.98 0.1 3.52 1.52 0.98 3.21 1.7 6.52 3.2 9.56-2.57 2.72-4.69 5.8-6.93 8.79-0.65 0.83-1.29 1.68-1.93 2.53 4.56 1.18 9.28 1.57 13.78 3 1.58 4.26 3.37 8.44 5.12 12.64-12.47-3.38-25.38-5.13-38.3-5.03 0.3-0.61 0.9-1.83 1.2-2.43 5.83-10.77 12.51-21.16 20.34-30.58z" fill="#6F6D6B" stroke="#6F6D6B"/>
  <path d="m721.41 666.43c2.56-2.25 5.58-3.85 8.4-5.74-0.9 1.44-1.79 2.89-2.66 4.36 2.1 0.16 4.21 0.36 6.33 0.58-0.3 0.19-0.89 0.57-1.19 0.76-3.0099 0.89-6.14 1.31-9.24 1.64-0.66-0.44-1.26-0.93-1.64-1.6z" fill="#BDC68A" stroke="#BDC68A"/>
  <path d="m754.25 666.98c2.5-1.15 5.02-2.28 7.59-3.29-1.27 0.95-2.79 1.94-2.75 3.73 1.19 0.16 2.37 0.42 3.54 0.78 9.91 8.39 19.38 17.4 27.45 27.6 1.37-4.47 2.64-8.96 3.75-13.5-3.03-2.83-5.75-5.96-8.41-9.14 2.26 0.51 4.55 0.91 6.87 1.14 9.56 8.99 16.86 19.98 25.09 30.12 1.75-4.07 3.24-8.25 4.66-12.45-2.69-3.87-5.62-7.55-8.56-11.22 1.11-0.28 2.23-0.55 3.35-0.81 0.95 2.73 3.81 2.75 6.24 2.92-0.25 0.32-0.76 0.95-1.02 1.27 8.03 10.21 15.27 21 22.32 31.91 1.59-4.33 3.62-8.48 5.42-12.73-2.7-3.9-5.38-7.82-7.56-12.03 1.42-0.1801 2.85-0.34 4.29-0.48-0.05 0.59-0.14 1.77-0.18 2.36 1.27 0.4901 2.52 1.02 3.8 1.55 3.19 6.58 8.01 12.22 11.55 18.63 2.98 5.05 5.87 10.17 9.2 15.01 1.78-4.14 4.46-7.91 5.77-12.25-1.9-4.17-5.09-7.67-6.73-12 0.44 0.05 1.33 0.16 1.78 0.21 2.49 2.33 5.25 4.43 8.6 5.36 6.92 11.22 13.33 22.73 19.75 34.24 2.23-3.92 4.33-7.92 6.46-11.89-2.19-4.16-4.49-8.25-6.75-12.36 4.53-0.61 9.12-0.99 13.7-0.55l0.66 0.04c-3.1 0.19-6.23-0.02-9.3 0.47-0.19 0.51-0.57 1.52-0.76 2.03 0.95 0.62 1.89 1.2599 2.83 1.94 7.2 11.26 12.75 23.54 19.92 34.83 2.01-3.86 4.43-7.51 6.11-11.53-1.51-4.56-4.79-8.33-6.14-12.99 0.7 0 2.1-0.01 2.8-0.02-0.03 0.48-0.09 1.43-0.11 1.9 1.4 0.81 2.86 1.56 4.16 2.58 6.99 11.37 13.34 23.15 20.12 34.66 2.14-4 4.92-7.73 6.28-12.09-1.7-4.25-4.58-7.88-6.66-11.93 2.54 0.19 4.44 1.97 6.63 3.03 5.08-0.02 10.12-0.77 15.21-0.72-3.92 0.67-7.8799 0.98-11.84 0.97-0.67 0.67-1.32 1.35-1.96 2.06 7.32 10.48 13.37 21.78 20.07 32.66 2.18-4.04 4.13-8.2 6.19-12.3-2.43-4.11-5.12-8.05-7.6-12.11 2.71-0.41 5.43-0.72 8.17-0.94-1.83 0.45-3.6 1.11-5.42 1.55 1.13 0.57 2.25 1.2 3.34 1.9l0.22 0.26c4.58 4.46 7.09 10.43 10.73 15.59 3.95 6.53 8.08 12.96 12.46 19.23 1.82-4.04 4.13-7.91 5.3-12.21-1.7-4.53-5.14-8.14-7.32-12.42 0.75-0.01 2.26-0.03 3.02-0.04 1.83 2.68 4.74 4.11 7.7 5.22 7.27 11.14 14.66 22.24 22.43 33.04 2.38-3.53 3.9301-7.73 5.16-11.8-1.65-4.6299-5.41-8.15-7.8-12.39 1.3201-0.04 2.65-0.17 3.9801-0.38-0.65 0.59-1.28 1.2-1.89 1.83 1.96 0.71 4.0699 1.21 5.84 2.41 8.03 10.71 15.5 21.85 23.57 32.56 1.64-4.22 3.91-8.25 4.91-12.68-2.47-4.01-5.5699-7.6-8.11-11.56 1.25-0.3 2.52-0.58 3.8-0.84-0.4401 0.37-1.3201 1.11-1.76 1.48 2.6799 1.48 5.62 2.39 8.72 1.99-0.6901 0.15-2.0699 0.46-2.75 0.62 7.86 10.93 16.16 21.53 24.67 31.97 1.58-4.29 3.1-8.61 4.4199-12.99-2.6799-3.58-5.75-6.86-8.1699-10.62 2.46-0.03 4.83 0.95 6.9199 2.22 4.76 4.65 8.4601 10.25 12.99 15.13 4.52 5.39 9.3101 10.56 13.98 15.84 1.4501-4.41 2.7101-8.88 3.78-13.39-3.1899-3.44-6.2999-6.93-9.14-10.66 0.5801-0.17 1.74-0.51 2.3201-0.68 1.47 3.27 5.01 2.78 7.95 2.5-0.5699 0.21-1.71 0.61-2.2899 0.81 9.23 10.06 18.38 20.27 29.08 28.82 0.65-4.44 1.3199-8.87 2.4-13.22-2.9301-2.81-5.92-5.55-8.7101-8.48 1.7101 0.08 3.4501 0.12 5.2001 0.16 7.64 0.07 14.95 2.75 22.53 3.36-6.1001 6.4399-13.3 11.69-19.57 17.94 4.3 1.33 8.63 2.59 13 3.69 3.54-3.14 7.09-6.2599 10.56-9.49 0.5499 2.39 1.21 4.77 1.7899 7.16-0.5399 0.21-1.61 0.63-2.14 0.84-1.0399 2.41-2 4.86-2.84 7.35l-0.74 0.49c-10.96 7.37-22.72 13.47-34.43 19.54 3.9801 2.23 7.9301 4.5 11.97 6.65 2.88-1.58 5.83-3.02 8.7999-4.41-0.33 1.71-0.5499 3.45-0.5299 5.21-11.33 6.73-23.41 12.06-35.21 17.87 3.77 2.29 7.3301 4.98 11.36 6.81 4.7101-0.92 8.5-4.41 13.27-5.19-0.03 0.75-0.08 2.24-0.11 2.98-0.66 0.1201-1.97 0.3701-2.63 0.4901-0.61 0.96-1.08 2.03-1.78 2.94-11.61 6.49-24.16 11.16-36.33 16.48 3.65 2.78 7.39 5.46 11.23 7.99 3.4-1.58 6.78-3.22 10.35-4.39-0.9399 1.83-1.7899 3.7-2.6 5.6-11.86 5.83-24.31 10.37-36.66 15.04 3.7201 2.64 7.4701 5.26 11.06 8.1 4.09-1.6299 8.22-3.2 12.42-4.56-1.4601 1.91-2.76 3.94-4.15 5.9-6.37 3.75-13.65 5.57-20.51 8.19-5.58 1.88-11.14 3.79-16.79 5.42 3.61 2.84 6.76 6.38 10.92 8.45 4.58-0.84 8.86-2.81 13.31-4.14-0.1799 1.12-0.36 2.26-0.51 3.42-3.5599 0.0699-4.9399 3.64-7.2799 5.67-3.3 1.62-6.8501 2.58-10.36 3.57-9.03 2.47-17.91 5.62-27.19 7.02 3.03 3.15 5.9 6.56 9.53 9.06 4.72 0.09 9.21-2.02 13.83-2.85-0.38 2.24-0.73 4.5-1.15 6.74-0.3999-1.69-0.61-3.39-0.6899-5.09-1.26 1.86-2.79 3.57-3.75 5.63-0.78 6.13-2.38 12.13-3.95 18.1l0.0199-0.95c0.9801-6.0901 2.8401-12 3.5601-18.13-12.53 3.43-25.27 6.06-38.12 7.93 2.97 3.29 5.6 6.9501 9.0499 9.78 4.67 0.11 9.12-1.6801 13.68-2.45-0.29 1.34-0.61 2.6799-0.84 4.0499-0.2201-0.4299-0.6801-1.29-0.9-1.71-1.29 1.2-2.37 2.8099-4.1 3.4-12.77 3.23-25.98 4.14-38.99 5.9199 3.07 3.29 5.28 7.39 8.69 10.35 4.6-0.1299 9.13-1.11 13.7-1.5599-0.6901 2.14-1.3501 4.3-2.1101 6.4301-0.0199-0.65-0.0599-1.9301-0.0699-2.5701-2.88-1.14-4.03 2.73-5.51 4.4301 0.1801-0.74 0.55-2.2101 0.74-2.9501-12.83 1.78-25.78 2.7101-38.73 2.63 2.2 3.77 4.81 7.28 7.18 10.96 4.91 0.0499 9.81-0.02 14.72-0.0601-0.73 1.4399-1.46 2.88-2.16 4.34-0.39-0.47-1.18-1.4099-1.57-1.87-1.06 0.77-2.12 1.54-3.18 2.3h-0.35c-13.13 0.13-26.31 0.5699-39.4-0.86 2.24 4.15 4.56 8.2799 7.15 12.23 4.63-0.01 9.27 0.15 13.9 0.46-0.31 0.5701-0.94 1.72-1.25 2.3-0.41-0.17-1.24-0.51-1.65-0.6801-2.62 1.41-5.25 2.8201-7.61 4.65-12.96-0.9-25.91-2.0599-38.74-4.1 1.9 4.0499 3.34 8.34 5.7 12.16 4.47 1.5 9.28 1.23 13.91 1.7899-0.92 1.48-1.76 3.02-2.6 4.55-1.51-2.55-3.56-0.8301-5.31 0.33-1.48-0.83-3.05-1.53-4.75-1.7-11.38-1.4501-22.65-3.7001-33.79-6.41 1.92 4.16 2.95 8.73 5.29 12.7 4.2 1.54 8.67 2.13 12.96 3.39-0.85 1.2201-1.63 2.4801-2.49 3.7001-0.88-2.36-3.1801-0.77-4.8701-0.5l-0.25-0.0701c-12.58-3.1599-25.24-6.0599-37.47-10.42 0.97 4.48 2.13 8.9199 3.68 13.25 4.43 1.25 8.86 2.51 13.3 3.77-1.58 1.7899-3.17 3.5699-4.81 5.3099 0.11-1 0.23-1.98 0.36-2.9399-1.25 0.0599-2.48 0.2799-3.71 0.2-12.58-3.4401-24.68-8.39-36.66-13.48 0.6801 4.24 0.9301 8.5699 2.21 12.7 3.35 3.34 8.41 4.05 12.63 5.92-0.96 1.03-1.85 2.12-2.8 3.1699-0.34-0.6299-1.02-1.8899-1.36-2.5199-1.72 0.72-3.44 1.4299-5.1201 2.23 0.1801-0.38 0.54-1.14 0.72-1.52-11.96-4.39-23.19-10.38-34.39-16.39 0.07 4.61 0.22 9.23 1.11 13.78 3.15 1.4 6.28 2.89 9.16 4.83-3.06 0.5601-6.87-0.2999-9.21 2.2101-11.44-5.89-22.15-13.04-32.67-20.41-0.25 4.58-0.32 9.1699-0.3 13.77 3.87 2.4199 7.64 5.01 11.32 7.73-1.34 0.7899-2.64 1.66-3.97 2.47 0.32-2.74-2.38-2.27-4.19-2.72-10.84-7.23-21.58-14.8-30.79-24.06-0.88 4.55-1.65 9.13-2.12 13.75 3.28 2.5701 6.69 5.03 9.54 8.0801 1.21 0.97-0.37 1.85-1.21 2.2-0.62-0.79-1.23-1.5599-1.83-2.33-1.34-0.05-2.68-0.1001-3.99-0.14-10.08-8-19.54-16.78-28.09-26.4-1.46 4.3101-3.33 8.78-2.73 13.43 1.87 2.63 4.35 4.7599 6.47 7.21-2.22-0.1801-4.42-0.3-6.62-0.4401-8.85-8.98-17.17-18.54-24.5-28.81-1.22 3.99-2.9 7.8199-4.05 11.84-0.69 1.61 0.95 2.86 1.77 4.0801 2.42 2.6599 4.58 5.5399 6.47 8.62-3.34 0.6399-6.7 1.21-10.04 1.87 2.07-1.38 4.95-1.13 6.56-3.1901-5.28-2.71-11.06 0.62-16.55 0.97 4.02-1.13 8.09-2.0299 12.19-2.8099-8.7-9.72-15.65-20.85-22.53-31.88-1.92 4.04-3.71 8.14-5.72 12.14 2.39 4.14 5.1899 8.0399 7.39 12.31-1.24 0.0601-2.47 0.13-3.69 0.23-0.02-0.73-0.04-1.4399-0.04-2.1399-2.61-1.01-5.2-2.0601-7.83-2.9801 0.05-0.36 0.16-1.1 0.21-1.46-7.08-10.3-12.39-21.68-17.91-32.85-2.34 3.7999-5.2 7.36-6.79 11.57 1.07 3.3101 2.95 6.29 4.31 9.5-1.92-0.4099-3.82-0.83-5.75-1.08-5.74-11.56-10.65-23.49-14.93-35.67-2.92 3.52-6.64 6.8101-8.2 11.16 1.5 4.15 3.51 8.11 4.77 12.36-4.5 0.05-8.97-0.34-13.44-0.8199 3.23 0.22 6.47 0.2799 9.7 0.0699-2.31-6-9.96-3.24-14.72-5.4299 3.88 0.3899 7.78 0.6899 11.64 1.33-4.63-12.23-8.29-24.8-11.32-37.51-2.89 3.48-6.52 6.38-8.98 10.2 0.46 4.51 2.19 8.79 2.82 13.29-2.38-0.35-4.77-0.61-7.12-1.03 1.64-0.23 3.3-0.47 4.96-0.6599-1.22-1.3101-2.71-2.4601-3.53-4.05-3.35-12.55-6.08-25.32-7.18-38.27-3.47 2.97-6.87 6.02-10.5 8.79 0.83 4.64 1.5699 9.2999 2.06 14-0.83-0.28-1.65-0.54-2.45-0.79 0.01-0.9299 0.04-1.85 0.07-2.75-1.01-0.99-2.11-1.89-2.98-2.98-2-7.72-1.86-15.73-2.66-23.6-0.41-5.05-0.13-10.12-0.18-15.18-3.71 2.5099-7.42 5.02-11.15 7.5099 0.18 4.66 0.27 9.33 0.2 14-1.48-0.59-2.95-1.11-4.39-1.73 0.37-0.33 1.12-0.98 1.49-1.31-0.98-2.2-2.3-4.32-4.18-5.84-4.54-2.9399-10.38-3.9-14.26-7.8199 4.75 2.52 9.54 4.97 14.56 6.91-0.73-12.85 1.11-25.65 2.33-38.41-3.85 1.95-7.94 3.42-11.68 5.58-1.25 4.6-0.78 9.52-1.92 14.18l-2.16-1.36c0.38-2.24-0.49-4.26-1.78-6.01 1.41-12.96 3.62-25.86 7.63-38.28-4.26 1.41-8.54 2.74-12.8 4.14-1.37 4.53-2.54 9.12-3.66 13.72-0.86-0.62-1.73-1.21-2.57-1.82 2.48-1.44 0.45-4.08 0.1-6.07 2.16-12.73 7.03-24.81 11.92-36.69-4.51 0.88-9.05 1.67-13.5 2.84-1.32 4.19-2.93 8.28-4.48 12.39-0.23-0.04-0.69-0.12-0.91-0.16 0.19-2.63 0.69-5.56-1.26-7.69 4.38-12.13 10.43-23.58 17.11-34.58-4.35 0.22-8.77-0.05-13.04 0.89-1.24 0.21-1.54 1.67-2.19 2.55-1.69 3.15-3.28 6.35-5.1 9.4399-0.64-0.9-1.28-1.78-1.91-2.65 0.41-0.63 1.23-1.89 1.64-2.51-0.18-0.72-0.52-2.16-0.69-2.87l0.25-0.45c5.99-11.54 13.91-21.87 21.87-32.09-4.63-0.04-9.22-0.97-13.84-0.81-3.15 3.28-5.3 7.35-8.02 10.97-0.25-0.43-0.75-1.28-1-1.7 2.57-2.83 2.65-6.65 2.14-10.22 7.31-10.39 16.51-19.3 25.88-27.81-4.31-1.13-8.55-3.19-13.04-3.11-3.8 2.67-6.67 6.44-10.31 9.33-0.28-0.98-0.55-1.94-0.81-2.9 2.17-2.44 1.75-5.8 1.82-8.81 0.69 2.23 0.75 4.58 0.7 6.91 0.21-2.09 0.72-4.2 2.41-5.58 8.58-8.16 18.12-15.25 28.13-21.55-4.17-1.87-8.24-4.61-12.84-5.06-4.06 2.14-7.21 5.65-11.32 7.75-0.09-1.54-0.19-3.06-0.36-4.57 0.66-0.45 1.98-1.35 2.64-1.79 5.16-5.74 12.23-9.12 18.84-12.87 5.05-2.93 10.33-5.44 15.41-8.34-3.8199-2.08-7.31-4.85-11.44-6.27-4.54 0.9301-7.99 4.61-12.54 5.6201-0.66-4.3-0.51-8.67-0.64-13l0.3-0.9901c0.47 4.05-0.15 8.21 1.03 12.18 1.23-1.88 2.72-3.69 3.22-5.9301 0.22-3.44-0.1-6.9 0.29-10.34 0.13 3.7 0.23 7.4 0.18 11.11 11.23-6.26 23.25-10.79 35.39-14.9-3.45-2.93-7.08-5.62-10.55-8.5099-4.45 1.49-8.84 3.16-13.26 4.71 0.13-1.37 0.21-2.74 0.24-4.1 4.64 0.19 4.92-4.89 5.56-8.26-0.22 1.82-0.38 3.66-0.53 5.51 12.39-3.82 24.77-7.8 37.6-9.86-3.25-3.06-6.38-6.23-9.47-9.44-4.64 0.8-9.25 1.7-13.91 2.39l0.3-1.2599c3.29-1.26 5.39-4.11 7.91-6.4 12.35-3.85 25.47-4.21 38.3-4.91-2.74-3.7401-4.89-8.09-8.34-11.2-4.53 0.17-9 1.31-13.55 0.97 0.26-0.62 0.79-1.87 1.05-2.5 0.52 0.09 1.57 0.25 2.09 0.33 1.1-0.95 2.23-1.87 3.42-2.71 1.13 0.24 2.25 0.19 3.37-0.14 11.67-2.07 23.65-0.59 35.43-0.13-2.09-3.94-3.84-8.13-6.69-11.59-4.6-0.72-9.29-0.22-13.92-0.47 0.31-0.61 0.92-1.84 1.23-2.45 2.17 0.04 4.53-0.09 5.95-1.98 12.92-0.1 25.83 1.65 38.3 5.03-1.75-4.2-3.54-8.38-5.12-12.64-4.5-1.43-9.22-1.82-13.78-3 0.64-0.85 1.28-1.7 1.93-2.53 1.16 3.27 4.22 0.34 6.04-0.56 12.36 2.71 24.74 6.08 36.13 11.73-0.93-4.26-1-8.66-2.11-12.87-4.02-2.71-8.94-3.69-13.4-5.48 0.9-0.84 1.82-1.67 2.74-2.51 0.71 0.27 2.13 0.8 2.84 1.07 1.93 0.23 3.9 0.24 5.79 0.77 11.1 3.65 20.84 10.23 30.78 16.2 0.01-4.56-0.01-9.12-0.04-13.67-3.2401-1.7-6.3701-3.58-9.48-5.48 3.1-0.33 6.23-0.75 9.24-1.64 11.16 6.71 21.65 14.6 30.99 23.71 0.05-4.65 1.29-9.19 1.33-13.81-2.7899-3.7499-7.0099-6.0999-10.36-9.3099m-86.45 72.88c-17.22 10.53-33.25 23.26-46.41 38.63-20.6 23.4-35.12 52.51-39.45 83.52-2.36 12.53-1.86 25.37-1.42 38.05 1.66 13.8 4.07 27.62 8.78 40.74 8.08 23.95 21.52 45.89 38 64.98 25.54 29.1 58.63 51.28 94.8 64.93 20.62 7.4701 42.04 12.98 63.9 15.19 22.51 1.7 45.26 1.2999 67.54-2.6 21.11-4.02 41.95-9.8101 61.85-17.98 35.06-14.45 67.46-35.11 95.99-60.04 13.29-12 26.31-24.39 37.75-38.21 12.88-14.6 24.24-30.43 35.76-46.11 10.07-14.4 19.8-29.06 28.77-44.18-4.79-2-9.86-3.14-14.76-4.8101-29.83-9.72-58.96-21.47-87.62-34.21-38.35-17.07-75.88-35.97-112.44-56.58-19.32-10.5-38.45-21.42-58.45-30.61-23.35-11.18-47.61-20.76-72.94-26.37-7.44-1.15-14.8-3.08-22.36-3.27-9.01-0.32-18.08-0.47-27.05 0.57-17.8 2.4901-34.95 8.9501-50.24 18.36z" fill="#8DB8A4" stroke="#8DB8A4"/>
  <path d="m802.4 671.31c9.68-2.58 19.45-4.84 29.36-6.42-0.42 4.48-2.52 8.63-4.35 12.68-3.16 1.6-7.17 1.17-10.58 2.37-1.12 0.26-2.24 0.53-3.35 0.81 2.94 3.67 5.87 7.35 8.56 11.22-1.42 4.2-2.91 8.38-4.66 12.45-8.23-10.14-15.53-21.13-25.09-30.12 3.42-0.8 6.74-1.97 10.11-2.99z" fill="#6F6D6B" stroke="#6F6D6B"/>
  <path d="m784.62 672.3c3.05-1.19 6.19-2.16 9.4-2.87-1.13 1.03-2.27 2.06-3.49 2.98 4.02 0.85 7.8-1.67 11.87-1.1-3.37 1.02-6.69 2.19-10.11 2.99-2.32-0.23-4.61-0.63-6.87-1.14l-0.8-0.86z" fill="#BDC68A" stroke="#BDC68A"/>
  <path d="m619.78 701.9c4.03-10.73 9.9399-20.58 15.24-30.69 2.27 3.94 4.68 7.84 6.68 11.94-0.44 2.11-1.67 3.94-2.65 5.84-0.9 1.63-1.75 3.28-2.57 4.96-0.31 0.61-0.92 1.84-1.23 2.45 4.63 0.25 9.32-0.25 13.92 0.47 2.85 3.46 4.6 7.65 6.69 11.59-11.78-0.46-23.76-1.94-35.43 0.13l-3.56-0.92c1.19-1.81 2.17-3.74 2.91-5.77z" fill="#6F6D6B" stroke="#6F6D6B"/>
  <path d="m823.07 682.86c12.87-1.93 25.65-5.15 38.69-5.48-2.12 3.81-3.35 8.06-5.57 11.81-3.02 1.37-6.46 1.14-9.67 1.61-1.44 0.14-2.87 0.3-4.29 0.48 2.18 4.21 4.86 8.1299 7.56 12.03-1.8 4.25-3.83 8.4-5.42 12.73-7.05-10.91-14.29-21.7-22.32-31.91 0.26-0.32 0.77-0.95 1.02-1.27z" fill="#6F6D6B" stroke="#6F6D6B"/>
  <path d="m607.25 689.18c3.14 3.31 5.16 7.49 8.32 10.8-1.05 3.81-2.42 7.52-4.02 11.13-0.26 0.63-0.79 1.88-1.05 2.5 4.55 0.34 9.02-0.8 13.55-0.97 3.45 3.11 5.6 7.46 8.34 11.2-12.83 0.7-25.95 1.06-38.3 4.91 2.65-13.68 8.11-26.63 13.16-39.57z" fill="#6F6D6B" stroke="#6F6D6B"/>
  <path d="m639.05 688.99c0.35 0.36 1.06 1.07 1.41 1.43 1.06-0.29 2.1-0.61 3.17-0.88-0.3 0.6-0.9 1.82-1.2 2.43-1.42 1.89-3.78 2.02-5.95 1.98 0.82-1.68 1.67-3.33 2.57-4.96z" fill="#BDC68A" stroke="#BDC68A"/>
  <path d="m864.6 691.69c6.98-0.57 13.99-2.3 21.01-1.06-7.22 1.01-14.47 1.6-21.74 2.09l0.73-1.03z" fill="#BDC68A" stroke="#BDC68A"/>
  <path d="m885.61 690.63c1.45-0.18 2.91-0.31 4.39-0.43-1.74 4.38-4.14 8.44-6.06 12.73-4.1 0.34-8.15 0.99-12.23 1.38-0.45-0.05-1.34-0.16-1.78-0.21 1.64 4.33 4.83 7.83 6.73 12-1.31 4.34-3.99 8.11-5.77 12.25-3.33-4.84-6.22-9.96-9.2-15.01-3.54-6.41-8.36-12.05-11.55-18.63 4.61-0.43 9.14-1.43 13.73-1.9901 7.27-0.49 14.52-1.08 21.74-2.09z" fill="#6F6D6B" stroke="#6F6D6B"/>
  <path d="m898.08 707.99c7.21-0.96 14.55-0.26 21.71-1.78-0.48 4.88-4.06 8.72-6.32 12.9-4.58-0.44-9.17-0.06-13.7 0.55 2.26 4.11 4.56 8.2 6.75 12.36-2.13 3.97-4.23 7.97-6.46 11.89-6.42-11.51-12.83-23.02-19.75-34.24 5.88-0.91 11.84-1.16 17.77-1.68z" fill="#6F6D6B" stroke="#6F6D6B"/>
  <path d="m572.19 747.81c1.99-11.67 3.11-23.67 7.37-34.79 2.93 2.9 6.12 5.59 8.61 8.91 1.05 1.24 0.42 2.95 0.16 4.38-0.83 2.91-1.61 5.85-2.15 8.84l-0.3 1.2599c4.66-0.69 9.27-1.59 13.91-2.39 3.09 3.21 6.22 6.38 9.47 9.44-12.83 2.06-25.21 6.04-37.6 9.86 0.15-1.8499 0.31-3.6899 0.53-5.5099z" fill="#6F6D6B" stroke="#6F6D6B"/>
  <path d="m667.8 739.86c15.29-9.41 32.44-15.87 50.24-18.36 8.97-1.04 18.04-0.89 27.05-0.57 7.56 0.19 14.92 2.12 22.36 3.27 25.33 5.61 49.59 15.19 72.94 26.37 20 9.19 39.13 20.11 58.45 30.61 36.56 20.61 74.09 39.51 112.44 56.58 28.66 12.74 57.79 24.49 87.62 34.21 4.9 1.67 9.97 2.8101 14.76 4.8101-8.9701 15.12-18.7 29.78-28.77 44.18-11.52 15.68-22.88 31.51-35.76 46.11-11.44 13.82-24.46 26.21-37.75 38.21-28.53 24.93-60.93 45.59-95.99 60.04-19.9 8.17-40.74 13.96-61.85 17.98-22.28 3.8999-45.03 4.2999-67.54 2.6-21.86-2.2101-43.28-7.72-63.9-15.19-36.17-13.65-69.26-35.83-94.8-64.93-16.48-19.09-29.92-41.03-38-64.98-4.71-13.12-7.12-26.94-8.78-40.74-0.44-12.68-0.94-25.52 1.42-38.05 4.33-31.01 18.85-60.12 39.45-83.52 13.16-15.37 29.19-28.1 46.41-38.63m52.2 20.07c-9.25 1.14-17.79 5.13-26.11 9.09-24.43 13.3-46.03 32.65-59.72 57.05-8.52 14.56-13.59 31.05-15.36 47.8-2.98 28.56 4.76 57.55 19.22 82.14 19.64 32.81 50.44 58.23 85.2 73.74 17.46 8.27 36.3 13.24 55.27 16.5 6.17 0.61 12.33 1.4 18.49 2.08 44.05 2.42 88.25-8.73 127.15-29.19 35.44-18.33 66.85-43.96 93.31-73.72 13.18-15.51 25.92-31.48 37.16-48.44-51.52-19.32-101.25-43.1-149.88-68.77-38.78-21.19-76.92-44.2-118.73-59.11-21.08-7.1601-43.65-12.82-66-9.1701z" fill="#6F6D6B" stroke="#6F6D6B"/>
  <path d="m906.9 723.59c13.41-0.44 26.77-1.97 40.2-2.42-1.77 4.27-4.3 8.16-6.42 12.26-3.7 0.28-7.4 0.38-11.09 0.45-0.7 0.01-2.1 0.02-2.8 0.02 1.35 4.66 4.63 8.43 6.14 12.99-1.68 4.02-4.1 7.67-6.11 11.53-7.17-11.29-12.72-23.57-19.92-34.83z" fill="#6F6D6B" stroke="#6F6D6B"/>
  <path d="m942.27 736.74c7.47-1.45 15.09-1.13 22.59-2.19 0.49 0.27 1.46 0.8 1.95 1.07-8.17 0.93-16.35 1.69-24.56 2.11l0.02-0.99z" fill="#BDC68A" stroke="#BDC68A"/>
  <path d="m966.81 735.62c2.25-0.2 4.51-0.23 6.78-0.29-1.84 4.17-3.88 8.25-6.28 12.13-4.65 0.47-9.29 1.02-13.93 1.54 2.08 4.05 4.96 7.68 6.66 11.93-1.36 4.36-4.14 8.09-6.28 12.09-6.78-11.51-13.13-23.29-20.12-34.66 2.86-0.29 5.73-0.5 8.61-0.63 8.21-0.42 16.39-1.18 24.56-2.11z" fill="#6F6D6B" stroke="#6F6D6B"/>
  <path d="m557.25 737.67c3.54 2.43 6.95 5.06 10.18 7.91 0.69 3.48-0.6 7-0.8 10.49-0.03 1.36-0.11 2.73-0.24 4.1 4.42-1.55 8.81-3.22 13.26-4.71 3.47 2.89 7.1 5.58 10.55 8.5099-12.14 4.11-24.16 8.64-35.39 14.9 0.05-3.71-0.05-7.41-0.18-11.11-0.16-10.08 0.64-20.21 2.62-30.09z" fill="#6F6D6B" stroke="#6F6D6B"/>
  <path d="m975.22 751.31c8.27-1.36 16.63-1.77 24.96-2.61-1.47 4.42-3.73 8.51-5.97 12.58-1.9901 0.11-3.9901 0.22-5.96 0.37-2.74 0.22-5.46 0.53-8.17 0.94 2.48 4.06 5.17 8 7.6 12.11-2.06 4.1-4.01 8.26-6.19 12.3-6.7-10.88-12.75-22.18-20.07-32.66 0.64-0.71 1.29-1.39 1.96-2.06 3.96 0.01 7.92-0.3 11.84-0.97z" fill="#6F6D6B" stroke="#6F6D6B"/>
  <path d="m720 759.93c22.35-3.65 44.92 2.01 66 9.17 41.81 14.91 79.95 37.92 118.73 59.11 48.63 25.67 98.36 49.45 149.88 68.77-11.24 16.96-23.98 32.93-37.16 48.44-26.46 29.76-57.87 55.39-93.31 73.72-38.9 20.46-83.1 31.61-127.15 29.19-6.16-0.6799-12.32-1.47-18.49-2.08-18.97-3.26-37.81-8.23-55.27-16.5-34.76-15.51-65.56-40.93-85.2-73.74-14.46-24.59-22.2-53.58-19.22-82.14 1.77-16.75 6.84-33.24 15.36-47.8 13.69-24.4 35.29-43.75 59.72-57.05 8.32-3.9599 16.86-7.9499 26.11-9.0899m16.48 41.88c-18.38 1.5-35.94 9.68-49.69 21.83-10.85 8.83-18.74 20.87-24.4 33.54-2.94 8.35-6.03 16.91-6.14 25.86-2.56 21.61 3.42 43.96 15.99 61.67 7.11 9.16 15.2 17.74 25.13 23.89 20.03 13.1 45.39 16.88 68.65 12.07 19.74-4.22 37.68-15.59 50.52-31.08 13.22-15.99 20.78-36.81 20.18-57.6 0.64-23.85-9.4-47.69-26.49-64.26-18.88-19.34-46.97-28.89-73.75-25.92z" fill="#BDC68A" stroke="#BDC68A"/>
  <path d="m993.93 765.78c11.12-1.59 22.31-2.58 33.41-4.33-1.49 4.45-3.61 8.65-5.7599 12.82-3.67 0.44-7.3 1.21-11 1.24-0.76 0.01-2.27 0.03-3.02 0.04 2.18 4.28 5.62 7.89 7.32 12.42-1.17 4.3-3.48 8.17-5.3 12.21-4.38-6.27-8.51-12.7-12.46-19.23-3.64-5.16-6.15-11.13-10.73-15.59 0.04-0.16 0.11-0.48 0.14-0.65 1.8899 2.33 4.9199 1.09 7.3999 1.07z" fill="#6F6D6B" stroke="#6F6D6B"/>
  <path d="m537.72 764.82c4.25 1.79 8.05 4.42 12.03 6.73l0.04 1.29c0.13 4.33-0.02 8.7 0.64 13 4.55-1.01 8-4.69 12.54-5.6201 4.13 1.42 7.6201 4.19 11.44 6.27-5.08 2.9-10.36 5.41-15.41 8.34-6.61 3.75-13.68 7.13-18.84 12.87 1.42-3.78-0.28-7.78-0.52-11.62-1.78-10.34-0.95-20.86-1.92-31.26z" fill="#6F6D6B" stroke="#6F6D6B"/>
  <path d="m1321.3 774.28c4.74-2.9 9.87-6.38 15.74-5.45 3.2899-0.06 5.71 2.36 7.52 4.83 1.1 2.26 1.0499 4.8701 0.8999 7.33-0.5599 5.98 0.8 11.96-0.1499 17.94 0.0699 3.17-1.8101 5.93-1.8601 9.08-0.2 4.86-2.5599 9.26-3.23 14.04-0.38 2.44-0.85 4.9-1.97 7.14-1.9301 3.64-0.97 8.11-3.48 11.54-1.5601 5.6-2.0601 11.73-5.27 16.75-1.48 2.23-0.8199 5.24-2.5699 7.36-1.9 2.46-1.3501 5.78-2.7301 8.47-1.85 3.91-2.4399 8.29-4.72 12.01-3.6 8.13-5.8199 16.89-9.97 24.78 0.59 0.8 1.23 1.64 1.86 2.48-1.51 0.64-3.3199 1.19-3.76 3-2.65 4.6-3 10.31-6.74 14.25-1.08 4.77-3.79 8.87-5.92 13.21-1.1499 2.08-0.4099 4.5-0.6399 6.75-1.42 1.46-3.2101 2.5-4.64 3.95-2.9501 8.13-6.37 16.28-11.09 23.59-1.62 5.02-4.1699 9.67-7.1799 13.99-1.62 5.69-6.41 9.81-7.41 15.73-3.71 3.89-4.67 9.49-8.51 13.26-0.0499 1.01-0.0699 2.05-0.08 3.09-2.14 2.41-4.49 4.77-5.8 7.76-1.61 6.45-6.74 11.14-9.21 17.21-1.13 2.99-3.74 4.98-5.38 7.64-3.96 7.26-9.15 13.79-12.61 21.34-3.5601 4.5-6.3201 9.5701-10.02 13.97-2.7 3.2001-3.63 7.9701-7.98 9.51 0.87 3-1.0701 5.4601-3.28 7.2301-3.98 3.24-4.6801 9.0399-9.0599 11.88-3.67 2.25-3.6901 7.4501-7.4601 9.6101-2.16 1.2899-2.99 3.72-4.11 5.83-1.38 2.86-4.21 4.5599-6.1 7.03-2.66 3.02-4.4 6.8099-7.54 9.4099-5.11 4.64-8.0399 11.25-13.59 15.43-1.74 2.9399-4.75 4.52-7.14 6.78-2.84 4.22-7.72 6.48-10.34 10.87-5.01 6.26-11.81 10.75-17.16 16.69-3.04 2.25-5.97 4.61-8.66 7.27-6.7899 4.88-13.1 10.41-20.08 15.01-3.54 2.5699-6.66 5.8199-10.82 7.4301-2.75 1.09-4.14 4.2-7.14 4.83-4.63 1.49-8.27 4.86-12.22 7.53-4.97 2.6599-9.3899 6.22-14.54 8.5599-5.8101 3.17-12.13 5.36-17.62 9.11-3.17 2.26-6.9901 3.4501-9.9901 5.9501-8.86 1.6699-16.25 7.7999-25.05 9.3099-0.64 0.61-1.26 1.23-1.86 1.87-4.27-0.25-7.1 3.1801-10.94 4.29-4.72 1.62-9.48 3.17-14.38 4.15-2.76 0.78-5.27 2.49-6.93 4.85-0.09-0.3-0.28-0.88-0.38-1.17-77.7 26.3-162.39 33.2-242.92 16.67-13.04-2.67-26-5.86-38.65-10.02-3.44-1.89-7.34-2.49-11.04-3.63-7.35-1.95-13.79-6.46-21.39-7.52-1.81-0.2699-3.38-1.13-4.71-2.3199-2.78-2.49-6.74-2.58-9.91-4.3-2.66-1.46-5.28-3.01-8.22-3.83-3.46-1.0601-5.97-3.9-9.33-5.16-3.38-1.7-7.31-2.58-10.02-5.37-8.18-1.65-14.59-7.16-21.47-11.45-13.74-10.29-29.7-17.74-41.65-30.27-4.35-1.83-6.72-6.0601-10.71-8.38-3.38-2.5699-6.28-5.6899-9.18-8.76-2.18-2.35-6.3-2.96-6.63-6.6899-4.54-2.1801-6.81-7.03-10.99-9.7001-3.1-1.64-3.54-5.5599-6.32-7.47-5.57-4.22-9.06-10.45-14.34-14.93-2.42-4.98-6.28-9.01-9.8-13.21-1.7-2.2-4.32-3.1-7.02-3.1 1.36-0.42 2.66-0.97 4.05-1.29-2.17-1.83-3.62-4.25-4.97-6.6899-0.75-1.7201-2.87-1.42-4.38-1.87 1.7-5.8-4.2-9.4301-6.6-13.97-4.86-8.48-11.13-16.21-14.59-25.42-0.64-1.63-1.99-2.77-3.11-4.02-0.25-4.02-3.2-7.02-4.37-10.74-7.48-14.06-12.57-29.17-18.01-44.08-1.03-5.01-3.54-9.53-4.31-14.6-1.99-4.71-1.87-9.95-3.91-14.63-2.03-3.85 0.18-8.52-2.25-12.19-2.39-3.74-1.78-8.31-1.49-12.49-1.06-1.54-2.28-2.98-3.02-4.69-1.04-4.07 0.82-8.4-0.77-12.36-1.23-2.66 0.04-5.47 0.23-8.19-0.44-2.99-2.01-5.7599-1.84-8.84 0.21-10.07-0.3-20.14 0.17-30.2 0.1-4.96 0.63-9.99-0.54-14.86 1.54-1.27 3.04-2.7 2.98-4.86-3.66-1.12-7.63-1.14-11.02-3.04 4 0.43 7.97 1.22 12 1.34 13.21-1.12 25.13-9.07 32.48-19.93 7.86-11.86 12.77-25.84 23.14-35.93 4.54-4.16 11.33-7.4301 17.4-4.65 11.1 5.35 17.6 16.63 28.02 22.97-1.26 12.3-0.69 24.73-0.42 37.08 2.98 40.65 15.99 80.42 37.03 115.3 39.38 65.78 105.1 114.15 178.21 136.08 24.95 8.11 51.05 12.11 77.16 14.07 10.68 0.3501 21.38 0.3601 32.07 0.13 10.05 0.15 19.99-1.5599 29.97-2.3899 8.19-0.5801 16.08-3.01 24.2-4.0801 76.97-15.36 147.81-55.59 204.08-109.83 25.51-24.12 47.29-51.85 67.74-80.29 22.13-31.06 42.52-63.49 59.02-97.91 9.22-19.77 17.3-40.28 21.39-61.77 4.03-0.47 7.53-2.94 11.63-3.1 3.27-0.09 6.0901-1.79 9.0901-2.87 6.0199-1.18 11.69-3.57 17.53-5.42 5.8-1.17 11.1-4.06 16.15-7.03 2.1901-0.85 4.5801-1.18 6.66-2.33 5.59-3.55 12.01-5.4 17.9-8.38-0.13-2.44-0.2101-4.88-0.1801-7.32 0.3 1.79 0.55 3.59 0.84 5.4 2.5701-0.95 5.0701-2.12 7.29-3.76 1.6201-1.1 3.2601-2.17 4.9401-3.21z" fill="#F1ECD1" stroke="#F1ECD1"/>
  <path d="m1041 777.66c5.64-0.39 11.07-2.19 16.74-2.4-1.85 4.28-3.3199 8.74-5.63 12.81-3.35 0.45-6.72 0.69-10.06 1.13-1.3301 0.21-2.66 0.34-3.9801 0.38 2.39 4.24 6.15 7.76 7.8 12.39-1.23 4.07-2.78 8.27-5.16 11.8-7.77-10.8-15.16-21.9-22.43-33.04 7.6699-0.27 15.09-2.39 22.72-3.07z" fill="#6F6D6B" stroke="#6F6D6B"/>
  <path d="m1046 793.44c13.14-2.35 26.28-4.76 39.43-7.08-1.6001 4.38-3.1801 8.79-5.3101 12.95-3.28 0.84-6.64 1.05-9.95 1.61-1.28 0.26-2.55 0.54-3.8 0.84 2.54 3.96 5.64 7.55 8.11 11.56-1 4.43-3.27 8.46-4.91 12.68-8.07-10.71-15.54-21.85-23.57-32.56z" fill="#6F6D6B" stroke="#6F6D6B"/>
  <path d="m523.24 794.53c4.08 1.99 8.59 3.18 12.45 5.5699 1.09 2.98 1.23 6.27 1.83 9.39 0.17 1.51 0.27 3.03 0.36 4.57 4.11-2.1 7.26-5.61 11.32-7.75 4.6 0.45 8.67 3.19 12.84 5.06-10.01 6.3-19.55 13.39-28.13 21.55-1.69 1.38-2.2 3.49-2.41 5.58 0.05-2.33-0.01-4.68-0.7-6.91-3.11-8.64-4.69-17.71-6.58-26.67-0.67-3.4299-0.77-6.9199-0.98-10.39z" fill="#6F6D6B" stroke="#6F6D6B"/>
  <path d="m1077.1 804.39c12.02-2.15 23.87-5.25 35.87-7.46-1.02 4.16-3.03 7.99-3.9301 12.19-4.46 2.06-9.46 2.29-14.1 3.78 0.0801 0.12 0.24 0.35 0.3301 0.47 2.4199 3.76 5.49 7.04 8.1699 10.62-1.3199 4.38-2.84 8.7-4.4199 12.99-8.51-10.44-16.81-21.04-24.67-31.97 0.6801-0.16 2.0599-0.47 2.75-0.62z" fill="#6F6D6B" stroke="#6F6D6B"/>
  <path d="m736.48 801.81c26.78-2.97 54.87 6.58 73.75 25.92 17.09 16.57 27.13 40.41 26.49 64.26 0.6 20.79-6.96 41.61-20.18 57.6-12.84 15.49-30.78 26.86-50.52 31.08-23.26 4.81-48.62 1.03-68.65-12.07-9.93-6.15-18.02-14.73-25.13-23.89-12.57-17.71-18.55-40.06-15.99-61.67 0.11-8.95 3.2-17.51 6.14-25.86 5.66-12.67 13.55-24.71 24.4-33.54 13.75-12.15 31.31-20.33 49.69-21.83z" fill="#C37182" stroke="#C37182"/>
  <path d="m1102.2 815.59c13.09-2.36 25.69-6.72 38.49-10.23-0.86 4.63-2.12 9.17-3.7 13.61-3.63 0.9-7.27 1.79-10.86 2.86-0.5801 0.17-1.74 0.51-2.3201 0.68 2.8401 3.73 5.9501 7.22 9.14 10.66-1.0699 4.51-2.33 8.98-3.78 13.39-4.6699-5.28-9.46-10.45-13.98-15.84-4.5298-4.88-8.2299-10.48-12.99-15.13z" fill="#6F6D6B" stroke="#6F6D6B"/>
  <path d="m1134.1 824.33c11.65-3.53 23.14-7.55 34.41-12.13-0.77 4.37-1.37 8.76-2.25 13.12-2.83 1.74-5.97 2.8-9.08 3.88-1.4 0.45-2.78 0.97-4.13 1.5 0.38 0.39 1.1499 1.17 1.5299 1.56 2.79 2.93 5.78 5.67 8.7101 8.48-1.0801 4.35-1.75 8.78-2.4 13.22-10.7-8.55-19.85-18.76-29.08-28.82 0.58-0.2 1.72-0.6 2.29-0.81z" fill="#6F6D6B" stroke="#6F6D6B"/>
  <path d="m512.16 826.2c4.54 0.78 8.89 2.29 13.36 3.38 1.21 3.59 2.43 7.17 3.46 10.82 0.26 0.96 0.53 1.92 0.81 2.9 3.64-2.89 6.51-6.66 10.31-9.33 4.4901-0.08 8.73 1.98 13.04 3.11-9.37 8.51-18.57 17.42-25.88 27.81-3.41-4.33-4.67-9.78-7.18-14.59-3.21-7.82-6.22-15.8-7.92-24.1z" fill="#6F6D6B" stroke="#6F6D6B"/>
  <path d="m1188.7 829.69c0.9401-0.99 1.85-2.23 3.33-2.39 4.02 12.8 8.2001 25.58 11.2 38.69-4.22-1.14-8.48-2.2-12.55-3.77-1.78-1.89-1.97-4.74-2.63-7.14-0.58-2.39-1.24-4.77-1.7899-7.16-3.4701 3.23-7.02 6.35-10.56 9.49-4.37-1.1-8.7-2.36-13-3.69 6.27-6.25 13.47-11.5 19.57-17.94 2.0998-2.0701 4.4298-3.9101 6.4298-6.0901z" fill="#6F6D6B" stroke="#6F6D6B"/>
  <path d="m1153 830.7c1.35-0.53 2.73-1.05 4.13-1.5 0.5599-0.06 1.6799-0.16 2.24-0.21 0.11 1.14 0.22 2.27 0.36 3.43-1.75-0.04-3.49-0.08-5.2001-0.16-0.3799-0.39-1.1498-1.17-1.5299-1.56z" fill="#BDC68A" stroke="#BDC68A"/>
  <path d="m520.08 850.3c2.51 4.81 3.77 10.26 7.18 14.59 0.51 3.57 0.43 7.39-2.14 10.22-1.17-1.96-2.33-3.92-3.39-5.92 1.08 0.51 2.17 1.04 3.27 1.57 2.68-7.52-5.42-13.26-4.92-20.46z" fill="#BDC68A" stroke="#BDC68A"/>
  <path d="m505.4 862.61c4.6 0.18 9.16 0.94 13.75 1.39 0.8199 1.74 1.66 3.48 2.58 5.19 1.06 2 2.22 3.96 3.39 5.92 0.25 0.42 0.75 1.27 1 1.7 2.72-3.62 4.87-7.69 8.02-10.97 4.62-0.16 9.21 0.77 13.84 0.81-7.96 10.22-15.88 20.55-21.87 32.09-8.55-11.01-14.72-23.62-20.71-36.13z" fill="#6F6D6B" stroke="#6F6D6B"/>
  <path d="m1147.9 883.3c11.71-6.07 23.47-12.17 34.43-19.54 2.1801 13.36 2.1 26.92 2.79 40.4-4.27-1.49-7.8101-4.42-11.98-6.11-0.29-4.76-0.6801-9.5-0.88-14.26-1.2201 0.57-2.4 1.17-3.5901 1.75-2.97 1.39-5.9199 2.83-8.7999 4.41-4.04-2.15-7.99-4.42-11.97-6.65z" fill="#6F6D6B" stroke="#6F6D6B"/>
  <path d="m1168.7 885.54c1.1901-0.58 2.37-1.18 3.5901-1.75 0.2 4.76 0.59 9.5 0.88 14.26-2.12-2.33 0.08-6.58-3.0801-8.24-1.0399 7.03-0.03 14.16-0.3199 21.24-0.29 6.39 1.5399 13.1-0.8401 19.26-0.0699-13.19 0.2001-26.4-0.7599-39.56-0.0201-1.76 0.1999-3.5 0.5299-5.21z" fill="#BDC68A" stroke="#BDC68A"/>
  <path d="m1168.2 890.75c0.96 13.16 0.6899 26.37 0.7599 39.56v0.92c-4.0599-1.91-7.6-4.69-11.52-6.81-0.1801-3.74-0.1901-7.47 0.0699-11.2 0.03-0.74 0.08-2.23 0.11-2.98-4.77 0.78-8.5599 4.27-13.27 5.19-4.0299-1.83-7.59-4.52-11.36-6.81 11.8-5.81 23.88-11.14 35.21-17.87z" fill="#6F6D6B" stroke="#6F6D6B"/>
  <path d="m534.11 895.23c4.27-0.94 8.69-0.67 13.04-0.89-6.6801 11-12.73 22.45-17.11 34.58-1.05-1.07-2.12-2.08-3.16-3.13-8.23-9.15-15.85-18.95-22.07-29.57 4.37-0.3799 8.76-0.7 13.16-0.47 3.0601 2.24 4.63 5.89 6.94 8.82 0.63 0.87 1.27 1.75 1.91 2.65 1.82-3.09 3.41-6.29 5.1-9.4399 0.65-0.8801 0.95-2.3401 2.19-2.5501z" fill="#6F6D6B" stroke="#6F6D6B"/>
  <path d="m1116.8 933.13c12.17-5.32 24.72-9.99 36.33-16.48 0 13.69-0.9299 27.35-1.1599 41.04-3.9601-2.52-7.8301-5.16-11.63-7.91 0.12-4.6 0.2899-9.2 0.45-13.8-0.8199 0.23-1.62 0.48-2.41 0.75-3.5699 1.17-6.95 2.81-10.35 4.39-3.8401-2.53-7.5801-5.21-11.23-7.99z" fill="#6F6D6B" stroke="#6F6D6B"/>
  <path d="m536.69 924.38c4.45-1.17 8.99-1.96 13.5-2.84-4.89 11.88-9.76 23.96-11.92 36.69-7.98-5.7-15.05-12.59-21.79-19.69-2.75-2.99-5.89-5.72-7.76-9.39 4.37-0.98 8.82-1.57 13.23-2.37 1.31 1.33 2.62 2.67 3.91 4.04 1.82 1.91 3.6 3.87 5.44 5.79 0.22 0.04 0.68 0.12 0.91 0.16 1.55-4.11 3.16-8.2 4.48-12.39z" fill="#6F6D6B" stroke="#6F6D6B"/>
  <path d="m526.88 925.79c1.04 1.05 2.11 2.06 3.16 3.13 1.95 2.13 1.45 5.06 1.26 7.69-1.84-1.92-3.62-3.88-5.44-5.79 1.07 0.25 2.14 0.51 3.21 0.79-0.76-1.94-1.49-3.88-2.19-5.82z" fill="#BDC68A" stroke="#BDC68A"/>
  <path d="m1138.3 936.73c0.79-0.27 1.5901-0.52 2.41-0.75-0.16 4.6-0.33 9.2-0.45 13.8-0.8501-0.23-1.6801-0.44-2.5-0.65-0.51 3.13-0.6001 6.47-2.27 9.27-0.0601-5.37 0.98-10.73 0.21-16.07 0.81-1.9 1.66-3.77 2.6-5.6z" fill="#BDC68A" stroke="#BDC68A"/>
  <path d="m1099.1 957.37c12.35-4.67 24.8-9.21 36.66-15.04 0.77 5.34-0.27 10.7-0.21 16.07-0.01 0.18-0.04 0.53-0.05 0.71-0.75 7.59-1.27 15.21-1.9099 22.82l-0.0701 0.86c-3.92-2.5-7.58-5.37-11.29-8.16l0.03-0.43c0.37-4.53 0.75-9.05 1.0801-13.58l-0.76 0.29c-4.2001 1.36-8.3301 2.9301-12.42 4.56-3.59-2.84-7.34-5.46-11.06-8.1z" fill="#6F6D6B" stroke="#6F6D6B"/>
  <path d="m544.4 952.4c4.2599-1.4 8.54-2.73 12.8-4.14-4.01 12.42-6.22 25.32-7.63 38.28-9.68-6.57-19.46-13.05-28.47-20.53-1.62-1.3-2.94-2.89-4.2599-4.47 4.2-1.69 8.53-3.03 12.9-4.2 2.87 2.24 5.53 4.75 8.43 6.96 0.84 0.61 1.71 1.2 2.57 1.82 1.1199-4.6 2.2899-9.19 3.6599-13.72z" fill="#6F6D6B" stroke="#6F6D6B"/>
  <path d="m1133.6 981.93c0.6399-7.61 1.1599-15.23 1.9099-22.82 1.74 1.93 0.47 4.59 0.51 6.87-0.76 5.09 0.23 10.44-1.4199 15.38l-1 0.57z" fill="#BDC68A" stroke="#BDC68A"/>
  <path d="m1122.6 960.91l0.76-0.29c-0.3301 4.53-0.7101 9.05-1.0801 13.58-1.3099-2.15-0.79-4.86-0.99-7.25-1.01 0.97-1.98 1.97-2.85 3.07 0-0.8 0.01-2.41 0.01-3.21 1.3901-1.96 2.6901-3.99 4.1501-5.9z" fill="#BDC68A" stroke="#BDC68A"/>
  <path d="m1097.9 975c6.86-2.62 14.14-4.44 20.51-8.19 0 0.8-0.01 2.41-0.01 3.21-1.46 12.34-2.03 24.78-4.08 37.06-4.2001-1.8-7.27-5.37-10.92-8 0.36-3.67 0.86-7.31 1.4299-10.93 0.15-1.16 0.3301-2.3 0.51-3.42-4.45 1.33-8.73 3.3-13.31 4.14-4.16-2.07-7.3101-5.61-10.92-8.45 5.65-1.63 11.21-3.54 16.79-5.42z" fill="#6F6D6B" stroke="#6F6D6B"/>
  <path d="m555.43 979.73c3.74-2.16 7.83-3.63 11.68-5.58-1.22 12.76-3.06 25.56-2.33 38.41-5.02-1.94-9.8101-4.39-14.56-6.91-7.16-4.1801-14.24-8.5-21.22-12.97 3.74-2.6 8.07-4.09 12.06-6.21 3.45 1.9901 6.92 3.94 10.29 6.08l2.16 1.36c1.1401-4.66 0.6701-9.58 1.9201-14.18z" fill="#6F6D6B" stroke="#6F6D6B"/>
  <path d="m1087.2 997.39c3.5099-0.99 7.0599-1.95 10.36-3.57-0.9301 13.45-4.24 26.57-6.3501 39.84-4.45-1.7101-7.2699-6.1901-10.68-9.4 0.64-2.29 1.25-4.58 1.6899-6.9 0.42-2.24 0.77-4.5 1.15-6.74-4.62 0.83-9.11 2.94-13.83 2.85-3.63-2.5-6.5-5.91-9.53-9.06 9.28-1.4 18.16-4.55 27.19-7.02z" fill="#6F6D6B" stroke="#6F6D6B"/>
  <path d="m571.36 1008.4c3.73-2.49 7.44-5 11.15-7.5099 0.05 5.06-0.23 10.13 0.18 15.18 0.8 7.87 0.66 15.88 2.66 23.6-13.44-3.33-26.15-9.13-38.43-15.41 3.69-2.6199 7.51-5.03 11.27-7.55 3.08 1.1 6.02 2.55 8.98 3.96 1.44 0.62 2.91 1.14 4.39 1.73 0.07-4.6701-0.02-9.3401-0.2-14z" fill="#6F6D6B" stroke="#6F6D6B"/>
  <path d="m1039.3 1024.8c12.85-1.87 25.59-4.5 38.12-7.93-0.72 6.13-2.58 12.04-3.5601 18.13-1.8999 7.01-3.97 13.98-5.5499 21.07-4.3201-1.9301-6.29-6.84-9.78-9.87 0.8-3.37 1.74-6.7 2.66-10.02 0.23-1.37 0.5499-2.71 0.84-4.0499-4.5601 0.7699-9.01 2.5599-13.68 2.45-3.4499-2.8301-6.0799-6.4901-9.0499-9.7801z" fill="#6F6D6B" stroke="#6F6D6B"/>
  <path d="m588.65 1032.1c3.63-2.77 7.03-5.8201 10.5-8.79 1.1 12.95 3.83 25.72 7.18 38.27-13.36-2.4-26.51-6.02-39.35-10.4 0.5-2.3199 2.73-3.4 4.38-4.8099 1.88-1.4601 3.53-3.26 5.67-4.3301 3.87 0.5701 7.49 2.16 11.23 3.27 0.8 0.25 1.62 0.51 2.45 0.79-0.49-4.7001-1.23-9.36-2.06-14z" fill="#6F6D6B" stroke="#6F6D6B"/>
  <path d="m1017.2 1043.8c13.01-1.7799 26.22-2.6899 38.99-5.9199-2.92 11.1-6.4601 22.03-10.26 32.85-0.65 2.16-1.5801 4.22-2.7101 6.1699-2.3999-2.97-4.9199-5.86-7.11-8.99-2.2699-2.7899 0.66-6.0499 1.37-8.8899 0.76-2.13 1.42-4.29 2.1101-6.4301-4.5701 0.45-9.1001 1.4301-13.7 1.5599-3.41-2.9599-5.62-7.0599-8.69-10.35z" fill="#6F6D6B" stroke="#6F6D6B"/>
  <path d="m609.2 1054.1c2.46-3.8199 6.09-6.72 8.98-10.2 3.03 12.71 6.69 25.28 11.32 37.51-3.86-0.64-7.76-0.9401-11.64-1.33-9.66-1.6001-19.41-2.6101-28.87-5.26 3.07-3.63 6.11-7.3501 9.82-10.36 2.01 0.6799 4.01 1.4199 6.09 1.8999 2.35 0.42 4.74 0.6801 7.12 1.03-0.63-4.4998-2.36-8.7798-2.82-13.29z" fill="#6F6D6B" stroke="#6F6D6B"/>
  <path d="m993.88 1060.6c12.95 0.0801 25.9-0.85 38.73-2.63-0.1899 0.74-0.5599 2.2101-0.74 2.9501-3.92 11.75-8.74 23.21-13.95 34.44-3.82-2.75-5.61-7.4-8.3-11.13 1.35-2.7999 2.64-5.61 4-8.39 0.7-1.46 1.43-2.9 2.16-4.34-4.91 0.04-9.8101 0.11-14.72 0.0601-2.37-3.6801-4.98-7.1901-7.18-10.96z" fill="#6F6D6B" stroke="#6F6D6B"/>
  <path d="m631.55 1073.9c1.56-4.35 5.28-7.64 8.2-11.16 4.28 12.18 9.19 24.11 14.93 35.67-13.73-0.03-27.48-0.77-41.14-2.2 2.77-3.6801 5.23-7.7401 8.69-10.79l0.65 0.02c4.47 0.48 8.94 0.87 13.44 0.8199-1.26-4.2499-3.27-8.2099-4.77-12.36z" fill="#6F6D6B" stroke="#6F6D6B"/>
  <path d="m969.12 1075.4c13.09 1.4299 26.27 0.99 39.4 0.86-3.57 8.58-7.75 16.9-11.92 25.2-2.23 3.63-3.58 7.8101-6.46 11.02-2.3-3.79-4.52-7.63-6.69-11.48 1.75-3.5701 3.53-7.14 5.47-10.61 0.31-0.5801 0.94-1.73 1.25-2.3-4.63-0.3099-9.27-0.47-13.9-0.46-2.59-3.9501-4.91-8.0799-7.15-12.23z" fill="#6F6D6B" stroke="#6F6D6B"/>
  <path d="m656.12 1090c1.59-4.21 4.45-7.77 6.79-11.57 5.52 11.17 10.83 22.55 17.91 32.85-0.05 0.36-0.16 1.1-0.21 1.46-5.11 0.79-10.27 1.15-15.41 1.64-8.16 0.24-16.33 0.14-24.48 0.52 1.22-2.9399 2.76-5.73 4.53-8.38 0.85-1.22 1.74-2.4 2.63-3.58 4.65 0.0499 9.3-0.16 13.95-0.34-0.47-1.05-0.94-2.0901-1.4-3.1001-1.36-3.21-3.24-6.19-4.31-9.5z" fill="#6F6D6B" stroke="#6F6D6B"/>
  <path d="m940.92 1090.3c12.83 2.04 25.78 3.2 38.74 4.1-5.94 12.12-13.46 23.43-20.91 34.67-1.92-3.39-3.61-6.89-5.07-10.49-1.71-3.8501 2.71-6.6801 4.25-9.78 0.84-1.53 1.68-3.0701 2.6-4.55-4.63-0.5599-9.44-0.2899-13.91-1.7899-2.36-3.8201-3.8-8.1102-5.7-12.16z" fill="#6F6D6B" stroke="#6F6D6B"/>
  <path d="m684.78 1105.3c2.0099-4 3.8-8.1 5.72-12.14 6.88 11.03 13.83 22.16 22.53 31.88-4.1 0.78-8.17 1.6799-12.19 2.8099-9.29 1.6001-18.6 3.53-28.04 3.9301 0.95-4.27 3.32-8 5.11-11.93 3.06-1.95 7.07-1.5399 10.57-2.01 1.22-0.1 2.45-0.1699 3.69-0.23-2.2-4.27-5-8.1699-7.39-12.31z" fill="#6F6D6B" stroke="#6F6D6B"/>
  <path d="m613.54 1096.2c13.66 1.4299 27.41 2.1699 41.14 2.2 1.93 0.25 3.83 0.67 5.75 1.08 0.46 1.01 0.93 2.05 1.4 3.1001-4.65 0.1799-9.3 0.3899-13.95 0.34-0.89 1.1799-1.78 2.36-2.63 3.58 0.15-1.35 0.01-3.14 1.56-3.72 3.07-1.1801 6.48-1 9.71-1.53-1.94-2.78-5.64-1.35-8.47-1.77-11.49-0.8302-23.43 0.4398-34.51-3.2801z" fill="#BDC68A" stroke="#BDC68A"/>
  <path d="m914.08 1101c11.14 2.71 22.41 4.96 33.79 6.41 1.7 0.1699 3.27 0.87 4.75 1.7-6.37 8.78-12.11 18.02-19.07 26.36-1.18 1.7101-3.25 3.24-2.93 5.5801-1.08 0.59-2.22 1.0599-3.3 1.61 1.94-5.05-2.59-9.62-3.25-14.55 1.84-2.51 3.83-4.9 5.77-7.3199 0.86-1.22 1.64-2.48 2.49-3.7001-4.29-1.26-8.76-1.85-12.96-3.39-2.34-3.9701-3.37-8.5401-5.29-12.7z" fill="#6F6D6B" stroke="#6F6D6B"/>
  <path d="m716.68 1103.6c7.33 10.27 15.65 19.83 24.5 28.81 0.26 0.28 0.77 0.8401 1.03 1.1101-2.33 0.6599-4.64 1.3799-6.94 2.1399-10.8 3.0801-21.49 7.39-32.8 7.9401 1.47-3.74 2.47-7.65 4.0601-11.33 0.54-1.8401 2.8-1.7101 4.3-2.26 3.34-0.66 6.7-1.2301 10.04-1.87-1.89-3.0801-4.05-5.9601-6.47-8.62-0.82-1.2201-2.46-2.4701-1.77-4.0801 1.1499-4.0199 2.8299-7.8499 4.0499-11.84z" fill="#6F6D6B" stroke="#6F6D6B"/>
  <path d="m887.25 1109.8c12.23 4.36 24.89 7.26 37.47 10.42-5.14 7.27-11.27 13.76-16.91 20.62-3.24 3.4301-6.32 7.05-9.95 10.06-1.29-4.34-2.13-8.79-3.51-13.1 1.61-1.9701 3.3-3.86 5.07-5.67 1.64-1.74 3.23-3.52 4.81-5.3099-4.44-1.26-8.87-2.52-13.3-3.77-1.55-4.3301-2.71-8.7701-3.68-13.25z" fill="#6F6D6B" stroke="#6F6D6B"/>
  <path d="m744.06 1112.2c8.55 9.62 18.01 18.4 28.09 26.4-12.46 5.7999-25.17 11.46-38.6 14.57 1.18-4.4299 2.14-8.9199 3.21-13.37 2.27-0.7899 4.56-1.53 6.86-2.24 2.14-0.7 4.28-1.4399 6.41-2.17-0.75-0.8799-1.48-1.72-2.23-2.5499-2.12-2.4501-4.6-4.58-6.47-7.21-0.6-4.65 1.27-9.1199 2.73-13.43z" fill="#6F6D6B" stroke="#6F6D6B"/>
  <path d="m640.72 1114.9c8.15-0.38 16.32-0.28 24.48-0.52l-0.88 0.9601c-5.39 0.73-10.89 0.23-16.32 0.46-2.42-0.1801-5.15 0.5399-7.28-0.9001z" fill="#BDC68A" stroke="#BDC68A"/>
  <path d="m859.41 1115.9c11.98 5.09 24.08 10.04 36.66 13.48-9.11 10.23-19.23 19.48-29.41 28.63-1.75-4.46-1.68-9.35-2.71-13.98 2.52-2.0801 5.16-4.05 7.5-6.3401 0.95-1.0499 1.84-2.1399 2.8-3.1699-4.22-1.87-9.28-2.5801-12.63-5.92-1.28-4.13-1.53-8.46-2.21-12.7z" fill="#6F6D6B" stroke="#6F6D6B"/>
  <path d="m771.76 1117.1c9.21 9.26 19.95 16.83 30.79 24.06-8.14 4.34-16.01 9.2-24.41 13.03-4.05 1.95-8.26 3.5399-12.29 5.5399 0.19-4.5599 0.87-9.0699 1.51-13.56 3.17-2.36 7.03-3.48 10.61-5.04 0.84-0.35 2.42-1.23 1.21-2.2-2.85-3.05-6.26-5.51-9.54-8.0801 0.47-4.62 1.24-9.2 2.12-13.75z" fill="#6F6D6B" stroke="#6F6D6B"/>
  <path d="m799.69 1119.9c10.52 7.37 21.23 14.52 32.67 20.41-0.84 0.83-1.65 1.6899-2.5 2.5299-6.78 4.67-13.62 9.3-20.75 13.45-3.63 2.0699-7.04 4.63-11.08 5.87-0.2401-4.53 0.34-9.03 0.48-13.54 2.58-1.86 5.4-3.3 8.23-4.75 1.33-0.8099 2.63-1.6801 3.97-2.47-3.68-2.72-7.45-5.3101-11.32-7.73-0.02-4.6001 0.05-9.19 0.3-13.77z" fill="#6F6D6B" stroke="#6F6D6B"/>
  <path d="m831.3 1119.5c11.2 6.01 22.43 12 34.39 16.39l-0.72 1.52c-9.62 8.91-19.98 17.05-30.74 24.55-0.47-4.5699-0.95-9.1499-0.97-13.74 1.81-2.09 4.23-3.51 6.36-5.23 1.43-1.1 2.83-2.23 4.26-3.33-0.78-0.53-1.55-1.05-2.31-1.55-2.88-1.9399-6.01-3.4299-9.16-4.83-0.89-4.5499-1.04-9.1699-1.11-13.78z" fill="#6F6D6B" stroke="#6F6D6B"/>
  <path d="m741.18 1132.4c2.2 0.14 4.4 0.26 6.62 0.4401 0.75 0.83 1.48 1.67 2.23 2.5499-2.13 0.7301-4.27 1.4701-6.41 2.17-0.03-0.64-0.11-1.92-0.14-2.5599-2.71 0.49-5.45 1.0399-8.21 0.6499 2.3-0.76 4.61-1.48 6.94-2.1399-0.26-0.2701-0.77-0.8301-1.03-1.1101z" fill="#BDC68A" stroke="#BDC68A"/>
  <path d="m832.36 1140.3c2.34-2.51 6.15-1.65 9.21-2.2101 0.76 0.5 1.53 1.02 2.31 1.55-1.43 1.1-2.83 2.23-4.26 3.33-2.4-3.37-6.61-0.58-9.76-0.14 0.85-0.84 1.66-1.7 2.5-2.5299z" fill="#BDC68A" stroke="#BDC68A"/>
  <path d="m715.09 1307.2c80.53 16.53 165.22 9.63 242.92-16.67 0.1 0.29 0.29 0.87 0.38 1.17 5.58 20.69 3.87 43.31-4.71 62.96-4.28 9.15-9.47 18.1-17.02 24.97-8.7 9.59-20.58 16.09-33.12 19.03-9.0099 2.02-18.3 1.99-27.3-0.02-25.69-5.58-45.59-27.35-53.13-51.96-3.36-8.6699-3.83-18.01-5.61-27.04-0.76 17.6-7.74 34.64-18.25 48.66-9.82 12.25-23.29 22.01-38.78 25.5-9.1899 1.86-18.81 2.12-27.99 0.03-18.37-4.04-34.14-16.57-43.92-32.43-6.89-11.05-11.31-23.58-13.02-36.47-0.32-6.33-1.67-12.66-0.7599-18.99 0.53-3.02 0.7-6.0699 0.7-9.12l0.96 0.36c12.65 4.1601 25.61 7.3501 38.65 10.02z" fill="#C37182" stroke="#C37182"/>
  <path d="m732.48 1393.9c9.18 2.09 18.8 1.83 27.99-0.03 0 67.26 0.1 134.53-0.05 201.79 15.5 2.27 31.12 6.08 44.6 14.36 3.46 2.24 7.68 3.84 11.58 1.55 12.58-4.78 25.54-8.5701 38.74-11.16 6.6299-1.99 13.62-2.13 20.28-3.97 0.07-60.79 0-121.59 0.03-182.38 0.0699-5.13-0.44-10.29 0.59-15.35 9 2.01 18.29 2.04 27.3 0.02 0.33 4.75-0.11 9.54 0.66 14.27-0.62 8.3-0.93 16.73 0.09 25.04 0.25 1.65-0.17 3.28-0.36 4.95-0.8 3.66 0.78 7.3301-0.01 11.01-0.62 2.91-0.02 5.8201 0.33 8.74-0.06 3.7001-1.21 7.42-0.07 11.11 0.04 3.7201-0.85 7.42-0.5 11.19-0.51 4.33 1.19 8.65 0.15 12.95-0.49 10.08 0.19 20.21 0.34 30.25-1.78 6.55 1.22 13.24-0.46 19.77 1.44 6.99-0.92 14 0.37 21.02-0.69 4.3199 0.77 8.67-0.45 13 1.07 4.54-0.7 9.1799 0.81 13.62 9.65-0.6801 19.07 1.78 28.46 3.55 7.83 2.35 15.75 4.7999 22.78 9.08 4.47 2.51 9.39 4.34 13.41 7.6 2.28 2.1 4.98 4.8101 4.21 8.23-2.51 5.05-7.51 9.1901-13.37 9.15-12.83-0.14-22.34-11.1-35.01-11.94-11.84-2.29-23.91-2.1901-35.9-1.8101-8.69 1.33-17.52 1.76-26.04 4.02-19.72 4.64-39.01 10.98-58.08 17.79-5.03 1.5499-10.18 2.7699-15 4.8899-8.35 1.9401-16.41 5.2201-24.97 6.2001-2.31-0.05-4.5-1-6.51-2.04-2.8-1.6-2.57-5.61-1.34-8.14 4.29-7.99 12.18-13.37 20.36-16.82 1.33-0.25 1.23-1.76 1.34-2.75-10.81-1.9-21.72-3.88-32.75-3.25-10.18-0.85-20.12 1.53-30.18 2.53-26.43 5.5299-51.8 14.94-77.37 23.38-9.07 2.6599-18.07 5.8199-27.46 7.11-2.96-0.6801-6.94-1.15-8.36-4.2201-1.11-4.8099 1.92-9.1399 4.98-12.52 6.72-6.55 15.44-10.57 24.19-13.67 27.15-8.75 53.71-20.18 82.2-23.9 5.78-1.36 11.68-2.23 17.61-2.4399 1.32-3.41 0.58-7.14 0.73-10.69 0.06-63.69-0.16-127.39 0.11-191.09z" fill="#DDB166" stroke="#DDB166"/>
 </g>
 <path d="m1407.2 1227.3c5.51-1.1 11.17-0.6699 16.76-0.7899 22.28-0.53 44.31 6.71 63.1 18.47 29.07 18.64 50.96 46.58 67.19 76.71 19.37 35.75 31.14 75.23 37.64 115.24 1.2401 8.6801 2.4601 17.35 2.89 26.12 0.8 3.89 1.0701 7.8501 0.9401 11.84 1.0699 23.05 0.63 46.22-2.85 69.07-5.3301 34.03-16.39 67.68-35.4 96.64-7.51 11.82-16.49 22.62-26.13 32.75-22.35 22.03-50.07 38.84-80.4 47.2-7.61 2.02-15.21 4.27-23.07 5-5.29 0.9801-10.6 1.89-15.99 1.66-7.65 0.47-15.33 0.88-22.98 0.24-5.62-0.6699-11.35 0.17-16.83-1.4199-48.02-5.7201-93.84-30.31-123.94-68.34-22.78-28.17-36.85-62.95-41.96-98.68-0.34-3.8501-1.01-7.64-1.61-11.44-0.9399-14.18-1.88-28.46-0.35-42.64-0.33-8.0699 1.54-15.96 2.1899-23.96 6.04-41.71 20.52-82.01 40.62-118.98 18.33-33.71 41.93-64.74 70.75-90.17 15.26-13.45 32.37-24.83 50.84-33.37 12.3-5.4301 25.29-9.2101 38.59-11.15m-9.86 126.14c-22.46 1.65-43.16 13.29-58.91 28.96-16.03 16.95-28.06 37.81-33.75 60.5-1.65 6.96-4.04 13.84-4.39 21.05-5.4199 38.65 3.0901 79.78 26 111.68 10.08 13.43 22.3 25.75 37.4 33.45 20.95 11.33 46.68 13.66 69.29 6.09 14.34-4.4399 26.98-13.13 38.02-23.14 13.23-13.2 23.79-29.17 30.39-46.67 16.24-40.48 14.67-87.62-3.83-127.09-10.57-22.21-27.12-42.18-48.94-53.99-5.39-3.5-11.61-5.3101-17.62-7.3501-10.75-3.7702-22.39-4.6402-33.66-3.4901z" fill="#C37182" stroke="#C37182" stroke-width=".0938"/>
 <path d="m1497.6 1418.3c-10.57-22.21-27.12-42.18-48.94-53.99-5.39-3.5-11.61-5.3101-17.62-7.3501-10.75-3.77-22.39-4.64-33.66-3.49-22.46 1.65-43.16 13.29-58.91 28.96-16.03 16.95-28.06 37.81-33.75 60.5-1.65 6.96-4.04 13.84-4.39 21.05-5.4199 38.65 3.0901 79.78 26 111.68 10.08 13.43 22.3 25.75 37.4 33.45 20.95 11.33 46.68 13.66 69.29 6.09 14.34-4.4399 26.98-13.13 38.02-23.14 13.23-13.2 23.79-29.17 30.39-46.67 16.24-40.48 14.67-87.62-3.83-127.09z" fill="#C592A6" stroke="#C592A6" stroke-width=".0938"/>
 <path d="m1481.6 1446.1c-4.3352-16.881-17.969-27.571-36.725-29.598-1.6304-0.1763-3.2159-0.2616-4.762-0.2616-16.304 0-27.904 9.521-34.537 22.534-6.9287-13.581-18.756-22.39-36-22.389-1.1414 0-2.3075 0.0386-3.4963 0.1169-17.151 1.1305-31.885 11.387-36.527 31.379-8.3501 35.964 31.173 72.727 76.023 108.49 47.697-35.522 84.91-75.671 76.023-110.27z" enable-background="new " fill="#B90000"/>
</svg>
